<svg xmlns="http://www.w3.org/2000/svg" xmlns:xlink="http://www.w3.org/1999/xlink" width="1440" height="300" viewBox="0 0 1440 300"><defs><path id="wdu6a" d="M4.88 330.62l32.03-46.757-39.193 1.327 19.597-31.288L4.88 246.62l-28.971 49.195h40.157l-20.958 28.447z"/><path id="wdu6b" d="M1321.47 168.294l19.463 34.082-19.463 34.695 9.731 6.889 16.028-28.858 17.624 28.858 9.617-6.889-21.592-34.695 21.592-34.082-9.617-6.334-17.624 28.84-16.028-28.84z"/><path id="wdu6c" d="M1159.676 14.9v19.128l28.994 19.052-28.994 20.518V95.9h-11.006v-81zm.183 30.421v16.573l11.026-8.286z"/><path id="wdu6d" d="M1380.06 287.36v-82l48 18.19-3.076 9.396-33.869-12.969v14.388l31.908 11.995-2.487 10.296-29.42-10.296v41z"/><path id="wdu6e" d="M1278.33 200.06v-79l43.894 26.935-25.157 17.014 27.263 25.98-7.337 7.04-28.203-30.323v32.354zm25.298-53.658l-14.851-7.913v15.825z"/><path id="wdu6f" d="M1443.307 244.92v25.905l-15.624-12.952-7.763 8.716 23.387 18.523v38.808h11.993v-28.476l15.605 12.741 7.015-9.171-22.62-19.942V244.92z"/><path id="wdu6g" d="M1186.33 134.33l1.732-81 28.795 32.427 29.473-32.427v81l-29.473-30.646zm9.613-53.513v28.41l14.457-14.205zm27.467 14.205l14.457 14.206v-28.41z"/><path id="wdu6h" d="M1251.83 88.22v81h13v-81z"/><path id="wdu6i" d="M1110.48-18.787l24.19 26.122-14.558 15.989 9.28 8.338 22.773-25.225-33.513-32.777z"/><path id="wdu6j" d="M1124.555 7.77l-7.463-8.48-23.562 23.404 32.598 34.598 9.087-8.36-24.332-26.238z"/><path id="wdu6k" d="M984.47 91.294l19.463 34.082-19.463 34.695 9.731 6.889 16.028-28.858 17.624 28.858 9.617-6.889-21.592-34.695 21.592-34.082-9.617-6.334-17.624 28.84-16.028-28.84z"/><path id="wdu6l" d="M822.676-62.1v19.128L851.67-23.92 822.676-3.402V18.9H811.67v-81zm.183 30.421v16.573l11.026-8.286z"/><path id="wdu6m" d="M1043.06 210.36v-82l48 18.19-3.076 9.396-33.869-12.969v14.388l31.908 11.995-2.487 10.296-29.42-10.296v41z"/><path id="wdu6n" d="M941.33 123.06v-79l43.894 26.935-25.157 17.014 27.263 25.98-7.337 7.04-28.203-30.323v32.354zm25.298-53.658l-14.851-7.913v15.825z"/><path id="wdu6o" d="M1106.307 167.92v25.905l-15.624-12.952-7.763 8.716 23.387 18.523v38.808h11.993v-28.476l15.605 12.741 7.015-9.171-22.62-19.942V167.92z"/><path id="wdu6p" d="M849.33 57.33l1.732-81 28.795 32.427L909.33-23.67v81l-29.473-30.646zm9.613-53.513v28.41L873.4 18.023zm27.467 14.205l14.457 14.206V3.818z"/><path id="wdu6q" d="M914.83 11.22v81h13v-81z"/><path id="wdu6r" d="M773.48-95.787l24.19 26.122-14.558 15.989 9.28 8.338 22.773-25.225-33.513-32.777z"/><path id="wdu6s" d="M787.555-69.23l-7.463-8.48-23.562 23.404 32.598 34.598 9.087-8.36-24.332-26.238z"/><path id="wdu6t" d="M59.7 302.153l24.19 26.122-14.558 15.989 9.28 8.338 22.773-25.225L67.872 294.6z"/><path id="wdu6u" d="M73.775 328.7l-7.463-8.48-23.562 23.404 32.598 34.598 9.087-8.36-24.332-26.238z"/><path id="wdu6v" d="M500.53 323.9v-84l30.745 21.772L561.53 239.9v84h-10.61v-35.853l-19.645-14.026-19.204 14.026V323.9zm21.515-57.12l-10.868-7.813v15.625zm29.95 7.812v-15.625l-10.86 7.813z"/><path id="wdu6w" d="M586.74 345.88v-81l37 22.735-6.804 9.895-19.486-12.844v61.214z"/><path id="wdu6x" d="M431.36 231.781l31.636-31.831 32.364 32.787-32.364 33.213zm32.354 16.865l14.378-15.711-14.378-16.332-15.427 16.021z"/><path id="wdu6y" d="M-89.41 315.54v-300h1681.69v300z"/><path id="wdu6z" d="M300.034 69.607l15.266-7.04-5.593-13.757-16.15 6.28zm-36.005 31.537l-4.919-11.57 29.586-12.868-11.743-29.332L313.09 31.56l19.06 38.887-26.914 12.28 14.865 32.246-11.872 5.273-13.118-32.923z"/><path id="wdu6A" d="M-145.22 412.17v-300h800.46v300z"/><path id="wdu6B" d="M968.73 250.58l32.03-46.757-39.193 1.327 19.597-31.288-12.433-7.282-28.971 49.195h40.157l-20.958 28.447z"/><path id="wdu6C" d="M1018.631 238.979v57.271h11.67v-57.271l15.067 14.717 9.312-8.779-30.084-29.667-31.916 29.667 8.463 8.779z"/><path id="wdu6D" d="M949.41 146.95l-25 13.706 25 15.042-50 27.572v-82zm-37.968-9.346v16.362l14.194-8.181zm0 30.004v16.353l14.194-8.176z"/><path id="wdu6E" d="M1112.76 395.58v-84l30.745 21.772 30.255-21.772v84h-10.61v-35.853l-19.645-14.026-19.204 14.026v35.853zm21.515-57.12l-10.868-7.813v15.625zm29.95 7.812v-15.625l-10.86 7.813z"/><path id="wdu6F" d="M1183.61 437.21v-81l37 22.735-6.804 9.895-19.486-12.844v61.214z"/><path id="wdu6G" d="M1046.63 302.471l31.636-31.831 32.364 32.787-32.364 33.213zm32.354 16.865l14.378-15.711-14.378-16.332-15.427 16.021z"/><path id="wdu6H" d="M1509.47 378.294l19.463 34.082-19.463 34.695 9.731 6.889 16.028-28.858 17.624 28.858 9.617-6.889-21.592-34.695 21.592-34.082-9.617-6.334-17.624 28.84-16.028-28.84z"/><path id="wdu6I" d="M1347.676 224.9v19.128l28.994 19.052-28.994 20.518V305.9h-11.006v-81zm.183 30.421v16.573l11.026-8.286z"/><path id="wdu6J" d="M1568.06 497.36v-82l48 18.19-3.076 9.396-33.869-12.969v14.388l31.908 11.995-2.487 10.296-29.42-10.296v41z"/><path id="wdu6K" d="M1466.33 410.06v-79l43.894 26.935-25.157 17.014 27.263 25.98-7.337 7.04-28.203-30.323v32.354zm25.298-53.658l-14.851-7.913v15.825z"/><path id="wdu6L" d="M1631.307 454.92v25.905l-15.624-12.952-7.763 8.716 23.387 18.523v38.808h11.993v-28.476l15.605 12.741 7.015-9.171-22.62-19.942V454.92z"/><path id="wdu6M" d="M1374.33 344.33l1.732-81 28.795 32.427 29.473-32.427v81l-29.473-30.646zm9.613-53.513v28.41l14.457-14.205zm27.467 14.205l14.457 14.206v-28.41z"/><path id="wdu6N" d="M1439.83 298.22v81h13v-81z"/><path id="wdu6O" d="M1298.48 191.213l24.19 26.122-14.558 15.989 9.28 8.338 22.773-25.225-33.513-32.777z"/><path id="wdu6P" d="M1312.555 217.77l-7.463-8.48-23.562 23.404 32.598 34.598 9.087-8.36-24.332-26.238z"/><path id="wdu6Q" d="M1049.47 315.294l19.463 34.082-19.463 34.695 9.731 6.889 16.028-28.858 17.624 28.858 9.617-6.889-21.592-34.695 21.592-34.082-9.617-6.334-17.624 28.84-16.028-28.84z"/><path id="wdu6R" d="M887.676 161.9v19.128l28.994 19.052-28.994 20.518V242.9H876.67v-81zm.183 30.421v16.573l11.026-8.286z"/><path id="wdu6S" d="M1108.06 434.36v-82l48 18.19-3.076 9.396-33.869-12.969v14.388l31.908 11.995-2.487 10.296-29.42-10.296v41z"/><path id="wdu6T" d="M1006.33 347.06v-79l43.894 26.935-25.157 17.014 27.263 25.98-7.337 7.04-28.203-30.323v32.354zm25.298-53.658l-14.851-7.913v15.825z"/><path id="wdu6U" d="M1171.307 391.92v25.905l-15.624-12.952-7.763 8.716 23.387 18.523v38.808h11.993v-28.476l15.605 12.741 7.015-9.171-22.62-19.942V391.92z"/><path id="wdu6V" d="M914.33 281.33l1.732-81 28.795 32.427 29.473-32.427v81l-29.473-30.646zm9.613-53.513v28.41l14.457-14.205zm27.467 14.205l14.457 14.206v-28.41z"/><path id="wdu6W" d="M979.83 235.22v81h13v-81z"/><path id="wdu6X" d="M838.48 128.213l24.19 26.122-14.558 15.989 9.28 8.338 22.773-25.225-33.513-32.777z"/><path id="wdu6Y" d="M852.555 154.77l-7.463-8.48-23.562 23.404 32.598 34.598 9.087-8.36-24.332-26.238z"/><path id="wdu6Z" d="M879.39 150.92l32.03-46.757-39.193 1.327 19.597-31.288-12.433-7.282-28.971 49.195h40.157l-20.958 28.447z"/><path id="wdu6aa" d="M929.291 139.319v57.271h11.67v-57.271l15.067 14.717 9.312-8.779-30.084-29.667-31.916 29.667 8.463 8.779z"/><path id="wdu6ab" d="M860.06 47.3l-25 13.706 25 15.042-50 27.572v-82zm-37.968-9.346v16.362l14.194-8.181zm0 30.004v16.353l14.194-8.176z"/><path id="wdu6ac" d="M1023.42 295.92v-84l30.745 21.772 30.255-21.772v84h-10.61v-35.853l-19.645-14.026-19.204 14.026v35.853zm21.515-57.12l-10.868-7.813v15.625zm29.95 7.812v-15.625l-10.86 7.813z"/><path id="wdu6ad" d="M1094.26 337.56v-81l37 22.735-6.804 9.895-19.486-12.844v61.214z"/><path id="wdu6ae" d="M957.28 202.821l31.636-31.831 32.364 32.787-32.364 33.213zm32.354 16.865l14.378-15.711-14.378-16.332-15.427 16.021z"/><path id="wdu6af" d="M762.23 287.27v-84l30.745 21.772 30.255-21.772v84h-10.61v-35.853l-19.645-14.026-19.204 14.026v35.853zm21.515-57.12l-10.868-7.813v15.625zm29.95 7.812v-15.625l-10.86 7.813z"/><path id="wdu6ag" d="M833.07 328.91v-81l37 22.735-6.804 9.895-19.486-12.844v61.214z"/><path id="wdu6ah" d="M696.09 194.171l31.636-31.831 32.364 32.787-32.364 33.213zm32.354 16.865l14.378-15.711-14.378-16.332-15.427 16.021z"/><path id="wdu6ai" d="M442.62 412.55v-300h1050.6v300z"/><path id="wdu6aj" d="M689.5 91.881l49.667 42.189 12.333-10.99-39.557-31.01 37.415-30.567-10.191-11.433z"/><path id="wdu6ak" d="M685.84 184.635l-33.427 17.367v39.188H640.84v-83zm-32.917-6.282v13.577l9.735-6.789z"/><path id="wdu6al" d="M421.24 80.607v83.173h10.083v-28.456l33.917-20.998-6.837-9.24-27.08 17.107v-17.107L465.24 83.02l-6.837-10.24-27.08 17.996v-10.17z"/><path id="wdu6am" d="M624.72 109.88v-83l49 24.092v58.908h-11.781V58.565l-25-13.096v64.411z"/><path id="wdu6an" d="M503.029 100.88H491.72v83h11.309v-44.736l25.988 21.893v22.843h11.703v-83h-11.703v41.5l-25.988-19.221z"/><path id="wdu6ao" d="M594.315 219.48v-69.583l20.674 16.22 7.921-8.619-40.026-31.018v71.648l-17.628-14.353-8.346 10.624z"/><path id="wdu6ap" d="M816.84 354.635l-33.427 17.367v39.188H771.84v-83zm-32.917-6.282v13.577l9.735-6.789z"/><path id="wdu6aq" d="M634.029 270.88H622.72v83h11.309v-44.736l25.988 21.893v22.843h11.703v-83h-11.703v41.5l-25.988-19.221z"/><path id="wdu6ar" d="M725.315 389.48v-69.583l20.674 16.22 7.921-8.619-40.026-31.018v71.648l-17.628-14.353-8.346 10.624z"/><path id="wdu6as" d="M602.771 91.05l-11.118-11.92-30.963 11.92v-83l29.853 10.03L602.77 8.05l7.919 8.827-16.544 15.048-21.535-9.587v54.05l19.042-8.875 17.413 17.578z"/><path id="wdu6at" d="M370.332 143.72h13.057v-41.152l26.161-26.76-8.168-9.044-17.993 17.316V58.72h-13.057v25.36l-17.034-19.528-9.748 9.695 26.782 26.973z"/><path id="wdu6au" d="M514.768-21.28h-13.057v41.152l-26.161 26.76 8.168 9.044 17.993-17.316v25.36h13.057V38.36l17.034 19.528 9.748-9.695-26.782-26.973z"/><path id="wdu6av" d="M48.83 203.78l32.03-46.757-39.193 1.327 19.597-31.288-12.433-7.282-28.971 49.195h40.157l-20.958 28.447z"/><path id="wdu6aw" d="M98.731 192.179v57.271h11.67v-57.271l15.067 14.717 9.312-8.779-30.084-29.667-31.916 29.667 8.463 8.779z"/><path id="wdu6ax" d="M29.51 100.16l-25 13.706 25 15.042-50 27.572v-82zm-37.968-9.346v16.362l14.194-8.181zm0 30.004v16.353l14.194-8.176z"/><path id="wdu6ay" d="M192.86 348.78v-84l30.745 21.772 30.255-21.772v84h-10.61v-35.853L223.606 298.9 204.4 312.927v35.853zm21.515-57.12l-10.868-7.813v15.625zm29.95 7.812v-15.625l-10.86 7.813z"/><path id="wdu6az" d="M263.7 390.42v-81l37 22.735-6.804 9.895-19.486-12.844v61.214z"/><path id="wdu6aA" d="M126.73 255.681l31.636-31.831 32.364 32.787-32.364 33.213zm32.354 16.865l14.378-15.711-14.378-16.332-15.427 16.021z"/><path id="wdu6aB" d="M968.73 120.58l32.03-46.757-39.193 1.327 19.597-31.288-12.433-7.282-28.971 49.195h40.157l-20.958 28.447z"/><path id="wdu6aC" d="M1018.631 108.979v57.271h11.67v-57.271l15.067 14.717 9.312-8.779-30.084-29.667-31.916 29.667 8.463 8.779z"/><path id="wdu6aD" d="M949.41 16.95l-25 13.706 25 15.042-50 27.572v-82zm-37.968-9.346v16.362l14.194-8.181zm0 30.004v16.353l14.194-8.176z"/><path id="wdu6aE" d="M1112.76 265.58v-84l30.745 21.772 30.255-21.772v84h-10.61v-35.853l-19.645-14.026-19.204 14.026v35.853zm21.515-57.12l-10.868-7.813v15.625zm29.95 7.812v-15.625l-10.86 7.813z"/><path id="wdu6aF" d="M1183.61 307.21v-81l37 22.735-6.804 9.895-19.486-12.844v61.214z"/><path id="wdu6aG" d="M1046.63 172.471l31.636-31.831 32.364 32.787-32.364 33.213zm32.354 16.865l14.378-15.711-14.378-16.332-15.427 16.021z"/><path id="wdu6aH" d="M735.73 385.58l32.03-46.757-39.193 1.327 19.597-31.288-12.433-7.282-28.971 49.195h40.157l-20.958 28.447z"/><path id="wdu6aI" d="M785.631 373.979v57.271h11.67v-57.271l15.067 14.717 9.312-8.779-30.084-29.667-31.916 29.667 8.463 8.779z"/><path id="wdu6aJ" d="M716.41 281.95l-25 13.706 25 15.042-50 27.572v-82zm-37.968-9.346v16.362l14.194-8.181zm0 30.004v16.353l14.194-8.176z"/><path id="wdu6aK" d="M879.76 530.58v-84l30.745 21.772 30.255-21.772v84h-10.61v-35.853L910.506 480.7 891.3 494.727v35.853zm21.515-57.12l-10.868-7.813v15.625zm29.95 7.812v-15.625l-10.86 7.813z"/><path id="wdu6aL" d="M950.61 572.21v-81l37 22.735-6.804 9.895-19.486-12.844v61.214z"/><path id="wdu6aM" d="M813.63 437.471l31.636-31.831 32.364 32.787-32.364 33.213zm32.354 16.865l14.378-15.711-14.378-16.332-15.427 16.021z"/><path id="wdu6aN" d="M322.15 224.774l19.463 34.082-19.463 34.695 9.731 6.889 16.028-28.858 17.624 28.858 9.617-6.889-21.592-34.695 21.592-34.082-9.617-6.334-17.624 28.84-16.028-28.84z"/><path id="wdu6aO" d="M160.356 71.24v19.128l28.994 19.052-28.994 20.518v22.302H149.35v-81zm.183 30.421v16.573l11.026-8.286z"/><path id="wdu6aP" d="M380.74 343.83v-82l48 18.19-3.076 9.396-33.869-12.969v14.388l31.908 11.995-2.487 10.296-29.42-10.296v41z"/><path id="wdu6aQ" d="M279.01 256.54v-79l43.894 26.935-25.157 17.014 27.263 25.98-7.337 7.04-28.203-30.323v32.354zm25.298-53.658l-14.851-7.913v15.825z"/><path id="wdu6aR" d="M443.997 301.4v25.905l-15.624-12.952-7.763 8.716 23.387 18.523V380.4h11.993v-28.476l15.605 12.741 7.015-9.171-22.62-19.942V301.4z"/><path id="wdu6aS" d="M187.01 190.67l1.732-81 28.795 32.427 29.473-32.427v81l-29.473-30.646zm9.613-53.513v28.41l14.457-14.205zm27.467 14.205l14.457 14.206v-28.41z"/><path id="wdu6aT" d="M252.51 144.57v81h13v-81z"/><path id="wdu6aU" d="M111.16 37.553l24.19 26.122-14.558 15.989 9.28 8.338 22.773-25.225L119.332 30z"/><path id="wdu6aV" d="M125.235 64.11l-7.463-8.48L94.21 79.034l32.598 34.598 9.087-8.36-24.332-26.238z"/><path id="wdu6aW" d="M1271.04 191.734l19.463 34.082-19.463 34.695 9.731 6.889 16.028-28.858 17.624 28.858 9.617-6.889-21.592-34.695 21.592-34.082-9.617-6.334-17.624 28.84-16.028-28.84z"/><path id="wdu6aX" d="M1109.246 38.34v19.128l28.994 19.052-28.994 20.518v22.302h-11.006v-81zm.183 30.421v16.573l11.026-8.286z"/><path id="wdu6aY" d="M1329.62 310.79v-82l48 18.19-3.076 9.396-33.869-12.969v14.388l31.908 11.995-2.487 10.296-29.42-10.296v41z"/><path id="wdu6aZ" d="M1227.89 223.5v-79l43.894 26.935-25.157 17.014 27.263 25.98-7.337 7.04-28.203-30.323V223.5zm25.298-53.658l-14.851-7.913v15.825z"/><path id="wdu6ba" d="M1392.877 268.36v25.905l-15.624-12.952-7.763 8.716 23.387 18.523v38.808h11.993v-28.476l15.605 12.741 7.015-9.171-22.62-19.942V268.36z"/><path id="wdu6bb" d="M1135.9 157.77l1.732-81 28.795 32.427L1195.9 76.77v81l-29.473-30.646zm9.613-53.513v28.41l14.457-14.205zm27.467 14.205l14.457 14.206v-28.41z"/><path id="wdu6bc" d="M1201.39 111.66v81h13v-81z"/><path id="wdu6bd" d="M1060.04 4.643l24.19 26.122-14.558 15.989 9.28 8.338 22.773-25.225-33.513-32.777z"/><path id="wdu6be" d="M1074.115 31.2l-7.463-8.48-23.562 23.404 32.598 34.598 9.087-8.36-24.332-26.238z"/><path id="wdu6bf" d="M821.78 306.64v-80l23.32 18.554 24.68-18.554v80h-11.44v-55.537l-12.56 10.838-12.712-10.838v55.537z"/><path id="wdu6bg" d="M0 350V50h1440v300z"/><path id="wdu6bi" d="M-25 334v-90h64v90zm29.88-3.38l32.03-46.757-39.193 1.327 19.597-31.288L4.88 246.62l-28.971 49.195h40.157l-20.958 28.447z"/><path id="wdu6bl" d="M1163 172V67h90v105zm168.201-10.04l16.028 28.84 17.624-28.84 9.617 6.334-21.592 34.082 21.592 34.695-9.617 6.889-17.624-28.858-16.028 28.858-9.731-6.889 19.463-34.695-19.463-34.082z"/><path id="wdu6bo" d="M1400 250v-97h69v97zM1159.676 14.9v19.128l28.994 19.052-28.994 20.518V95.9h-11.006v-81zm.183 30.421v16.573l11.026-8.286z"/><path id="wdu6br" d="M1102 154V56h84v98zm278.06 133.36v-82l48 18.19-3.076 9.396-33.869-12.969v14.388l31.908 11.995-2.487 10.296-29.42-10.296v41z"/><path id="wdu6bu" d="M1234 197V95h76v45.494l-31.67-19.434V197zm76 0h-21.21v-29.294l21.21 22.805zm-21.21 3.06V197h-10.46v3.06zm28.203-2.031l7.337-7.04-14.33-13.656v13.178zm-19.926-33.02l12.933-8.747v21.07zm25.157-17.014L1310 140.494v15.768zm-33.447 6.32v-15.826l14.85 7.913z"/><path id="wdu6bx" d="M1055 125V30h61v95zm400.3 119.92v34.152l22.62 19.942-7.015 9.171-15.605-12.741v28.476h-11.993v-38.808l-23.387-18.523 7.763-8.716 15.624 12.952V244.92z"/><path id="wdu6bA" d="M1319 233V121h101v112zm-132.67-98.67l1.732-81 28.795 32.427 29.473-32.427v81l-29.473-30.646zm9.613-53.513v28.41l14.457-14.205zm27.467 14.205l14.457 14.206v-28.41z"/><path id="wdu6bD" d="M1289 207v-97h57v97zm-24.17-118.78v81h-13v-81z"/><path id="wdu6bG" d="M1446 267v-73h51v73zM1118.652-26.34l33.513 32.777-22.773 25.225-9.28-8.338 14.559-15.99-24.191-26.121z"/><path id="wdu6bJ" d="M1472 244v-73h49v73zM1110.883 22.694l24.332 26.237-9.087 8.361-32.598-34.598L1117.092-.71l7.463 8.48z"/><path id="wdu6bM" d="M826 95V-10h90V95zm168.201-10.04l16.028 28.84 17.624-28.84 9.617 6.334-21.592 34.082 21.592 34.695-9.617 6.889-17.624-28.858-16.028 28.858-9.731-6.889 19.463-34.695-19.463-34.082z"/><path id="wdu6bP" d="M1063 173V76h69v97zM822.676-62.1v19.128L851.67-23.92 822.676-3.402V18.9H811.67v-81zm.183 30.421v16.573l11.026-8.286z"/><path id="wdu6bS" d="M765 77v-98h84v98zm278.06 133.36v-82l48 18.19-3.076 9.396-33.869-12.969v14.388l31.908 11.995-2.487 10.296-29.42-10.296v41z"/><path id="wdu6bV" d="M897 120V18h76v45.494L941.33 44.06V120zm76 0h-21.21V90.706L973 113.511zm-21.21 3.06V120h-10.46v3.06zm28.203-2.031l7.337-7.04L973 100.333v13.178zm-19.926-33.02L973 79.262v21.07zm25.157-17.014L973 63.494v15.768zm-33.447 6.32V61.488l14.85 7.913z"/><path id="wdu6bY" d="M718 48v-95h61v95zm400.3 119.92v34.152l22.62 19.942-7.015 9.171-15.605-12.741v28.476h-11.993v-38.808l-23.387-18.523 7.763-8.716 15.624 12.952V167.92z"/><path id="wdu6cb" d="M982 156V44h101v112zM849.33 57.33l1.732-81 28.795 32.427L909.33-23.67v81l-29.473-30.646zm9.613-53.513v28.41L873.4 18.023zm27.467 14.205l14.457 14.206V3.818z"/><path id="wdu6ce" d="M952 130V33h57v97zM927.83 11.22v81h-13v-81z"/><path id="wdu6ch" d="M1109 190v-73h51v73zM781.652-103.34l33.513 32.777-22.773 25.225-9.28-8.338 14.559-15.99-24.191-26.121z"/><path id="wdu6ck" d="M1135 167V94h49v73zM773.883-54.306l24.332 26.237-9.087 8.361-32.598-34.598 23.562-23.404 7.463 8.48z"/><path id="wdu6cn" d="M30 351v-50h30.947l-1.247 1.153 24.19 26.122-14.558 15.989L76.829 351zm66-50v21.11L74.416 301zm0 50H80.059L96 333.343zm-17.388 1.602L80.06 351h-3.23zm22.773-25.225L96 322.11v11.233zM67.872 294.6l-6.925 6.4h13.469z"/><path id="wdu6cq" d="M48 371v-21.804L68.543 371zm0-48h15.513L48 338.41zm66 0v48H83.198l1.237-1.139-24.332-26.237L73.775 328.7l-5.017-5.7zm-47.688-2.78l-2.8 2.78h5.246zM42.75 343.624l5.25 5.572V338.41zm32.598 34.598l7.85-7.222H68.543z"/><path id="wdu6ct" d="M479 340V224h103v116zm33.071-16.1v-35.853l19.204-14.026 19.646 14.026V323.9h10.609v-84l-30.255 21.772L500.53 239.9v84zm-.894-49.308v-15.625l10.868 7.813zm29.959-7.812l10.858-7.813v15.625z"/><path id="wdu6cw" d="M565 349v-96h72v96zm32.45-3.12v-61.214l19.486 12.844 6.804-9.895-37-22.735v81z"/><path id="wdu6cz" d="M425 272v-79h77v79zm37.996-6.05l32.364-33.213-32.364-32.787-31.636 31.831zm-14.71-33.326l15.428-16.021 14.378 16.332-14.378 15.71z"/><path id="wdu6cE" d="M251 129V23h90v106zm42.557-73.91l16.15-6.28 5.593 13.756-15.266 7.04zm1.555 32.233l13.118 32.923 11.872-5.273-14.865-32.247 26.914-12.28-19.06-38.886-36.138 15.814 11.743 29.332-29.586 12.869 4.92 11.57z"/><path id="wdu6cH" d="M720.81 164.23v-5.51h800.46v5.51z"/><path id="wdu6cI" d="M185.81 245.23v-5.51h800.46v5.51z"/><path id="wdu6cL" d="M-61.07 164.64v-5.51h800.46v5.51z"/><path id="wdu6cM" d="M-247.86 353.13v-5.51H552.6v5.51z"/><path id="wdu6cN" d="M1124 260v-90h64v90zm-165.041-15.778l20.958-28.447H939.76l28.97-49.195 12.434 7.282-19.597 31.288 39.193-1.327-32.03 46.757z"/><path id="wdu6cQ" d="M1060 294v-90h75v90zm-58.857-40.304l-8.463-8.779 31.916-29.667 30.084 29.667-9.312 8.779-15.067-14.717v57.271h-11.67v-57.271z"/><path id="wdu6cT" d="M1179 223v-91h88v91zm-229.59-76.05l-25 13.706 25 15.042-50 27.572v-82zm-37.968-9.346v16.362l14.194-8.181zm0 30.004v16.353l14.194-8.176z"/><path id="wdu6cW" d="M905 389V269h112v120zm207.76 6.58v-84l30.745 21.772 30.255-21.772v84h-10.61v-35.853l-19.645-14.026-19.204 14.026v35.853zm21.515-57.12l-10.868-7.813v15.625zm29.95 7.812v-15.625l-10.86 7.813z"/><path id="wdu6cZ" d="M879 404v-87h66v87zm304.61 33.21v-81l37 22.735-6.804 9.895-19.486-12.844v61.214z"/><path id="wdu6dc" d="M994 322v-74h73v33.975l-20.37 20.496L1064.711 322zm73 0h-2.289l13.555 14.64 32.364-33.213-32.364-32.787L1067 281.975v17.763l11.984-12.445 14.378 16.332-14.378 15.71L1067 306.89zm-3.443-18.686l3.443-3.576v7.152z"/><path id="wdu6dr" d="M1506 441V336h90v105h-37.308l-17.814-28.624 21.592-34.082-9.617-6.334-17.624 28.84-16.028-28.84-9.731 6.334 19.463 34.082L1512.876 441zm3.47 6.071l9.731 6.889L1526.4 441h-13.523zm25.76-21.969l9.708 15.898h-18.539zm17.623 28.858l9.617-6.889-3.778-6.071h-13.754z"/><path id="wdu6du" d="M1290 355v-97h46.67v47.9h11.006v-22.302l11.324-8.014V355zm69-97v17.584l17.67-12.504-28.994-19.052V224.9h-11.006V258h11.19v-2.679l3.563 2.679zm-.115 5.608l-11.026 8.286V258h3.564z"/><path id="wdu6dx" d="M1573 452v-34.768l-4.94-1.872v82h11.055v-41l29.421 10.296 2.487-10.296-11.598-4.36zm0-98h84v98h-57.575l-20.31-7.635v-14.388l33.87 12.969 3.075-9.396-43.06-16.318z"/><path id="wdu6dA" d="M1449 413V311h76v102zm27.79-2.94v-32.354l28.203 30.323 7.337-7.04-27.263-25.98 25.157-17.014-43.894-26.935v79zm-.013-45.746V348.49l14.85 7.913z"/><path id="wdu6dD" d="M1643 478v-23.08h-11.693v25.905l-15.624-12.952-7.763 8.716 23.387 18.523v38.808h11.993v-28.476l15.605 12.741 7.015-9.171-22.62-19.942V478zm0-95h61v95h-60.7v-23.08h-.3z"/><path id="wdu6dG" d="M1339 387V275h36.813l-1.483 69.33 30.527-30.646 29.473 30.646V275h5.67v112zm95.33-123.67L1423.723 275h10.607zm-29.473 32.427L1386.425 275h37.298zm-28.795-32.427l-.25 11.67h10.613zm22.338 41.692l-14.457 14.206v-28.41zm27.467-14.205v28.41l-14.457-14.205z"/><path id="wdu6dJ" d="M1413 398v-97h26.83v78.22h13V301H1470v97zm26.83-99.78V301h13v-2.78z"/><path id="wdu6dM" d="M1262 314v-73h51v73zm44.652-130.34l33.513 32.777-22.773 25.225-9.28-8.338 14.559-15.99-24.191-26.121z"/><path id="wdu6dP" d="M1238 337v-73h49v73zm60.883-104.306l24.332 26.237-9.087 8.361-32.598-34.598 23.562-23.404 7.463 8.48z"/><path id="wdu6dS" d="M1046 378V273h90v105h-37.308l-17.814-28.624 21.592-34.082-9.617-6.334-17.624 28.84-16.028-28.84-9.731 6.334 19.463 34.082L1052.876 378zm3.47 6.071l9.731 6.889L1066.4 378h-13.523zm25.76-21.969l9.708 15.898h-18.539zm17.623 28.858l9.617-6.889-3.778-6.071h-13.754z"/><path id="wdu6dV" d="M830 292v-97h46.67v47.9h11.006v-22.302L899 212.584V292zm69-97v17.584l17.67-12.504-28.994-19.052V161.9H876.67V195h11.19v-2.679l3.563 2.679zm-.115 5.608l-11.026 8.286V195h3.564z"/><path id="wdu6dY" d="M1113 389v-34.768l-4.94-1.872v82h11.055v-41l29.421 10.296 2.487-10.296-11.598-4.36zm0-98h84v98h-57.575l-20.31-7.635v-14.388l33.87 12.969 3.075-9.396-43.06-16.318z"/><path id="wdu6eb" d="M989 350V248h76v102zm27.79-2.94v-32.354l28.203 30.323 7.337-7.04-27.263-25.98 25.157-17.014-43.894-26.935v79zm-.013-45.746V285.49l14.85 7.913z"/><path id="wdu6ee" d="M1183 415v-23.08h-11.693v25.905l-15.624-12.952-7.763 8.716 23.387 18.523v38.808h11.993v-28.476l15.605 12.741 7.015-9.171-22.62-19.942V415zm0-95h61v95h-60.7v-23.08h-.3z"/><path id="wdu6eh" d="M879 324V212h36.813l-1.483 69.33 30.527-30.646 29.473 30.646V212H980v112zm95.33-123.67L963.723 212h10.607zm-29.473 32.427L926.425 212h37.298zm-28.795-32.427l-.25 11.67h10.613zm22.338 41.692l-14.457 14.206v-28.41zm27.467-14.205v28.41l-14.457-14.205z"/><path id="wdu6ek" d="M953 335v-97h26.83v78.22h13V238H1010v97zm26.83-99.78V238h13v-2.78z"/><path id="wdu6en" d="M802 251v-73h51v73zm44.652-130.34l33.513 32.777-22.773 25.225-9.28-8.338 14.559-15.99-24.191-26.121z"/><path id="wdu6eq" d="M778 274v-73h49v73zm60.883-104.306l24.332 26.237-9.087 8.361-32.598-34.598 23.562-23.404 7.463 8.48z"/><path id="wdu6et" d="M823 191V95h39.855l-12.435 21.115h40.157l-20.958 28.447 9.772 6.358L901 119.374V191zm78-96v9.516l-28.773.974 6.57-10.49zm10.42 9.163l-10.42.353v14.858zm-19.596-29.961L879.39 66.92 862.855 95h15.942z"/><path id="wdu6ew" d="M895 219v-95h31.209l-22.869 21.257 8.463 8.779 17.488-14.717v57.271h11.67v-57.271l15.067 14.717 9.312-8.779L943.784 124H970v95zm40.256-103.41L926.21 124h17.575z"/><path id="wdu6ez" d="M758 154V60h52.06v43.62L841 86.558V154zm83-94v4.58l-5.94-3.574L836.895 60zm-30.94-38.38V60h26.835l23.165-12.7zm50 54.428L841 64.58v21.978zm-23.774-29.913l-14.194 8.18V37.955zm0 30l-14.194 8.176V67.958z"/><path id="wdu6eC" d="M1023 279V163h103v116h-41.58v-67.08l-30.255 21.772-30.745-21.772V279zm11.961 16.92V279h-11.541v16.92zm0-35.853l19.204-14.026 19.646 14.026V279h-38.85zm38.85 35.853h10.609V279h-10.61zm-39.744-49.308v-15.625l10.868 7.813zm29.959-7.812l10.858-7.813v15.625z"/><path id="wdu6eF" d="M1105 285v-8.634l13.1 8.634zm0-97h72v97h-49.663l3.923-5.705L1105 263.16zm-.03 149.56v-61.214l.03.02v-13.207l-10.74-6.599v81zm19.486-48.37l2.881-4.19h-9.237z"/><path id="wdu6eI" d="M959 235v-30.321L987.073 235zm0-79h77v79h-45.145l30.425-31.223-32.364-32.787L959 201.09zm29.916 80.99l1.939-1.99h-3.782zm-31.636-34.169l1.72 1.858v-3.588zm16.927.843l15.427-16.021 14.378 16.332-14.378 15.71z"/><path id="wdu6eL" d="M743 301V184h103v117zm30.771-13.73v-35.853l19.204-14.026 19.646 14.026v35.853h10.609v-84l-30.255 21.772-30.745-21.772v84zm-.894-49.308v-15.625l10.868 7.813zm29.959-7.812l10.858-7.813v15.625z"/><path id="wdu6eO" d="M824 307v-97h72v97h-52.22v-39.304l19.486 12.844 6.804-9.895-37-22.735V307zm19.78 21.91V307h-10.71v21.91z"/><path id="wdu6eR" d="M678 257v-79h34.162l-16.072 16.171 31.636 34.169L755 200.35V257zm77-79v11.97L743.184 178zm5.09 17.127L755 189.97v10.38zm-32.364-32.787L712.162 178h31.022zm-14.71 32.674l15.428-16.021 14.378 16.332-14.378 15.71z"/><path id="wdu6eW" d="M379.76 221.26v-5.51h800.46v5.51z"/><path id="wdu6eX" d="M837.76 262.26v-5.51h800.46v5.51z"/><path id="wdu6eY" d="M683 146V51h55.062L689.5 91.881l49.667 42.189 12.333-10.99-39.557-31.01 37.415-30.567L739.996 51H767v95zm56.167-95.93l-1.105.93h1.934z"/><path id="wdu6fb" d="M620 244v-99h78v99zm20.84-85.81v83h11.573v-39.188l33.427-17.367zm21.818 26.951l-9.735 6.79v-13.578z"/><path id="wdu6fe" d="M398 165V67h86v98zm23.24-84.393v83.173h10.083v-28.456l33.917-20.998-6.837-9.24-27.08 17.107v-17.107L465.24 83.02l-6.837-10.24-27.08 17.996v-10.17z"/><path id="wdu6fh" d="M603 124V13h83v111zm33.94-14.12V45.469l24.999 13.096v51.315h11.781V50.972l-49-24.092v83z"/><path id="wdu6fk" d="M470 198V87h92v111zm33.029-97.12H491.72v83h11.309v-44.736l25.988 21.893v22.843h11.703v-83h-11.703v41.5l-25.988-19.221z"/><path id="wdu6fn" d="M543 227V119h92v108zm51.315-7.52v-69.583l20.674 16.22 7.921-8.619-40.026-31.018v71.648l-17.628-14.353-8.346 10.624z"/><path id="wdu6fq" d="M740 355v-94h84v94h-7.863l.703-.365-45-26.445V355zm31.84 56.19h11.573v-39.188L816.137 355h-22.682l.203.141-9.735 6.789V355H771.84zm12.083-62.837l9.532 6.647h-9.532z"/><path id="wdu6ft" d="M603 438V325h19.72v28.88h11.309V325h18.822l7.166 6.037v22.843h11.703V325H704v113zm31.029-167.12H622.72V325h11.309v-15.856L652.85 325h18.869v-54.12h-11.703v41.5l-25.988-19.221z"/><path id="wdu6fw" d="M673 391V288h92v103zm52.315-1.52v-69.583l20.674 16.22 7.921-8.619-40.026-31.018v71.648l-17.628-14.353-8.346 10.624z"/><path id="wdu6fz" d="M540 103V-6h89v109zm69.066-17.909l-17.413-17.578-19.042 8.875v-54.05l21.535 9.587 16.544-15.048-7.919-8.827-12.228 10.03L560.69 8.05v83l30.963-11.92 11.118 11.92z"/><path id="wdu6fC" d="M346 152V76.714l24.332 24.506v42.5h13.057v-41.152l26.161-26.76-8.168-9.044-17.993 17.316V58.72h-13.057v25.36l-17.034-19.528L346 71.81V50h79v102zm-2.45-77.753l2.45 2.467V71.81z"/><path id="wdu6fF" d="M460 72V-30h79v75.625L514.768 21.22v-42.5h-13.057v41.152l-26.161 26.76 8.168 9.044 17.993-17.316v25.36h13.057V38.36l17.034 19.528L539 50.729V72zm81.55-23.807L539 45.625v5.104z"/><path id="wdu6fI" d="M10 202v-82h38.701L19.86 168.975h40.157l-20.958 28.447L46.095 202zm79-82v82H50.05l30.81-44.977-39.193 1.327 19.597-31.288L49.206 120zm-40.17 83.78l1.22-1.78h-3.955zm0-84l-.129.22h.505z"/><path id="wdu6fL" d="M65 253v-83h38.029L72.78 198.117l8.463 8.779 17.488-14.717v57.271h11.67v-57.271l15.067 14.717 9.312-8.779L106.268 170H143v83zm39.696-84.55L103.03 170h3.239z"/><path id="wdu6fO" d="M-49 150V60h91v90H-8.739l38.249-21.092-25-15.042 25-13.706-50-25.68V150zm28.51 6.48L-8.739 150H-20.49zM5.736 98.995l-14.194 8.18V90.815zm0 30l-14.194 8.176v-16.353z"/><path id="wdu6fR" d="M164 367V247h118v120zm40.401-18.22v-35.853l19.204-14.026 19.646 14.026v35.853h10.609v-84l-30.255 21.772-30.745-21.772v84zm-.894-49.308v-15.625l10.868 7.813zm29.959-7.812l10.858-7.813v15.625z"/><path id="wdu6fU" d="M234 385v-86h82v86h-41.59v-55.794l19.486 12.844 6.804-9.895-37-22.735V385zm40.41 5.42V385H263.7v5.42z"/><path id="wdu6fX" d="M126 290v-67h66v67zm32.366-.15l32.364-33.213-32.364-32.787-31.636 31.831zm-14.71-33.326l15.428-16.021 14.378 16.332-14.378 15.71z"/><path id="wdu6ga" d="M1124 130V40h64v90zm-165.041-15.778l20.958-28.447H939.76l28.97-49.195 12.434 7.282-19.597 31.288 39.193-1.327-32.03 46.757z"/><path id="wdu6gd" d="M1060 164V74h75v90zm-58.857-40.304l-8.463-8.779 31.916-29.667 30.084 29.667-9.312 8.779-15.067-14.717v57.271h-11.67v-57.271z"/><path id="wdu6gg" d="M1179 93V2h88v91zM949.41 16.95l-25 13.706 25 15.042-50 27.572v-82zm-37.968-9.346v16.362l14.194-8.181zm0 30.004v16.353l14.194-8.176z"/><path id="wdu6gj" d="M905 259V139h112v120zm207.76 6.58v-84l30.745 21.772 30.255-21.772v84h-10.61v-35.853l-19.645-14.026-19.204 14.026v35.853zm21.515-57.12l-10.868-7.813v15.625zm29.95 7.812v-15.625l-10.86 7.813z"/><path id="wdu6gm" d="M879 274v-87h66v87zm304.61 33.21v-81l37 22.735-6.804 9.895-19.486-12.844v61.214z"/><path id="wdu6gp" d="M994 192v-74h73v33.975l-20.37 20.496L1064.711 192zm73 0h-2.289l13.555 14.64 32.364-33.213-32.364-32.787L1067 151.975v17.763l11.984-12.445 14.378 16.332-14.378 15.71L1067 176.89zm-3.443-18.686l3.443-3.576v7.152z"/><path id="wdu6gs" d="M891 395v-90h64v90zm-165.041-15.778l20.958-28.447H706.76l28.97-49.195 12.434 7.282-19.597 31.288 39.193-1.327-32.03 46.757z"/><path id="wdu6gv" d="M827 429v-90h75v90zm-58.857-40.304l-8.463-8.779 31.916-29.667 30.084 29.667-9.312 8.779-15.067-14.717v57.271h-11.67v-57.271z"/><path id="wdu6gy" d="M946 358v-91h88v91zm-229.59-76.05l-25 13.706 25 15.042-50 27.572v-82zm-37.968-9.346v16.362l14.194-8.181zm0 30.004v16.353l14.194-8.176z"/><path id="wdu6gB" d="M672 524V404h112v120zm207.76 6.58v-84l30.745 21.772 30.255-21.772v84h-10.61v-35.853L910.506 480.7 891.3 494.727v35.853zm21.515-57.12l-10.868-7.813v15.625zm29.95 7.812v-15.625l-10.86 7.813z"/><path id="wdu6gE" d="M646 539v-87h66v87zm304.61 33.21v-81l37 22.735-6.804 9.895-19.486-12.844v61.214z"/><path id="wdu6gH" d="M761 457v-74h73v33.975l-20.37 20.496L831.711 457zm73 0h-2.289l13.555 14.64 32.364-33.213-32.364-32.787L834 416.975v17.763l11.984-12.445 14.378 16.332-14.378 15.71L834 441.89zm-3.443-18.686l3.443-3.576v7.152z"/><path id="wdu6gK" d="M298 311V207h102v104zm24.15-86.226l19.463 34.082-19.463 34.695 9.731 6.889 16.028-28.858 17.624 28.858 9.617-6.889-21.592-34.695 21.592-34.082-9.617-6.334-17.624 28.84-16.028-28.84z"/><path id="wdu6gN" d="M120 145V59h77v86h-36.644v-15.062l28.994-20.518-28.994-19.052V71.24H149.35V145zm29.35 7.24h11.006V145H149.35zm22.215-42.292l-11.026 8.286v-16.573z"/><path id="wdu6gQ" d="M351 334v-86h95v86h-54.205v-31.17l29.421 10.296 2.487-10.296-31.908-11.995v-14.388l33.87 12.969 3.075-9.396-48-18.19V334zm40.795 9.83V334H380.74v9.83z"/><path id="wdu6gT" d="M251 264V164h84v100zm38.47-7.46v-32.354l28.203 30.323 7.337-7.04-27.263-25.98 25.157-17.014-43.894-26.935v79zm-.013-45.746V194.97l14.85 7.913z"/><path id="wdu6gW" d="M412 384v-85h76v85zm31.997-82.6v25.905l-15.624-12.952-7.763 8.716 23.387 18.523V380.4h11.993v-28.476l15.605 12.741 7.015-9.171-22.62-19.942V301.4z"/><path id="wdu6gZ" d="M159 209V92h115v117zm58.537-48.976l29.473 30.646v-81l-29.473 32.427-28.795-32.427-1.732 81zm-6.457-8.662l-14.457 14.206v-28.41zm27.467-14.205v28.41l-14.457-14.205z"/><path id="wdu6hc" d="M220 229v-88h78v88zm32.51-84.43v81h13v-81z"/><path id="wdu6hf" d="M109 96V29h50v67zm2.16-58.447l24.19 26.122-14.558 15.989 9.28 8.338 22.773-25.225L119.332 30z"/><path id="wdu6hi" d="M89 113V48h48v65h-9.505l8.4-7.729-24.332-26.237 13.672-14.924-7.463-8.48L94.21 79.034 126.212 113zm37.808.632l.687-.632h-1.283z"/><path id="wdu6hl" d="M1113 265V160h98v105zm167.771-79.6l16.028 28.84 17.624-28.84 9.617 6.334-21.592 34.082 21.592 34.695-9.617 6.889-17.624-28.858-16.028 28.858-9.731-6.889 19.463-34.695-19.463-34.082z"/><path id="wdu6ho" d="M1337 134V41h71v93zm-227.754-95.66v19.128l28.994 19.052-28.994 20.518v22.302h-11.006v-81zm.183 30.421v16.573l11.026-8.286z"/><path id="wdu6hr" d="M1074 290v-96h78v96zm255.62 20.79v-82l48 18.19-3.076 9.396-33.869-12.969v14.388l31.908 11.995-2.487 10.296-29.42-10.296v41z"/><path id="wdu6hu" d="M1174 214v-85h92v38.886l-38.11-23.386V214zm92 0h-6.394l6.947 7.469 7.337-7.04-7.89-7.52zm-27.65 9.5V214h-10.46v9.5zm0-32.354L1259.606 214h-21.256zm8.277-2.697L1266 175.347v31.563zm25.157-17.014l-5.784-3.55v7.462zm-33.447 6.32v-15.826l14.85 7.913z"/><path id="wdu6hx" d="M1010 326v-92h83v92zm394.87-57.64v34.152l22.62 19.942-7.015 9.171-15.605-12.741v28.476h-11.993v-38.808l-23.387-18.523 7.763-8.716 15.624 12.952V268.36z"/><path id="wdu6hA" d="M1255 184V67h107v117zm-119.1-26.23l1.732-81 28.795 32.427L1195.9 76.77v81l-29.473-30.646zm9.613-53.513v28.41l14.457-14.205zm27.467 14.205l14.457 14.206v-28.41z"/><path id="wdu6hD" d="M1228 201v-94h69v94zm-13.61-89.34v81h-13v-81z"/><path id="wdu6hG" d="M1386 107V47h64v60zM1068.212-2.91l33.513 32.777-22.773 25.225-9.28-8.338 14.559-15.99-24.191-26.121z"/><path id="wdu6hJ" d="M1380 84V24h64v60zm-319.557-37.876l24.332 26.237-9.087 8.361-32.598-34.598 23.562-23.404 7.463 8.48z"/><path id="wdu6hM" d="M796 322V211h98v111zm37.068-15.36v-55.537l12.712 10.838 12.56-10.838v55.537h11.44v-80l-24.68 18.554-23.32-18.554v80z"/><filter id="wdu6bj" width="200%" height="200%" x="-50%" y="-50%"><feGaussianBlur in="SourceGraphic" result="FeGaussianBlur1024Out" stdDeviation="4 4"/></filter><mask id="wdu6bk"><use fill="#fff" xlink:href="#wdu6a"/></mask><filter id="wdu6bm" width="200%" height="200%" x="-50%" y="-50%"><feGaussianBlur in="SourceGraphic" result="FeGaussianBlur1035Out" stdDeviation="4 4"/></filter><mask id="wdu6bn"><use fill="#fff" xlink:href="#wdu6b"/></mask><filter id="wdu6bp" width="200%" height="200%" x="-50%" y="-50%"><feGaussianBlur in="SourceGraphic" result="FeGaussianBlur1044Out" stdDeviation="4 4"/></filter><mask id="wdu6bq"><use fill="#fff" xlink:href="#wdu6c"/></mask><filter id="wdu6bs" width="200%" height="200%" x="-50%" y="-50%"><feGaussianBlur in="SourceGraphic" result="FeGaussianBlur1053Out" stdDeviation="4 4"/></filter><mask id="wdu6bt"><use fill="#fff" xlink:href="#wdu6d"/></mask><filter id="wdu6bv" width="200%" height="200%" x="-50%" y="-50%"><feGaussianBlur in="SourceGraphic" result="FeGaussianBlur1062Out" stdDeviation="4 4"/></filter><mask id="wdu6bw"><use fill="#fff" xlink:href="#wdu6e"/></mask><filter id="wdu6by" width="200%" height="200%" x="-50%" y="-50%"><feGaussianBlur in="SourceGraphic" result="FeGaussianBlur1071Out" stdDeviation="4 4"/></filter><mask id="wdu6bz"><use fill="#fff" xlink:href="#wdu6f"/></mask><filter id="wdu6bB" width="200%" height="200%" x="-50%" y="-50%"><feGaussianBlur in="SourceGraphic" result="FeGaussianBlur1080Out" stdDeviation="4 4"/></filter><mask id="wdu6bC"><use fill="#fff" xlink:href="#wdu6g"/></mask><filter id="wdu6bE" width="200%" height="200%" x="-50%" y="-50%"><feGaussianBlur in="SourceGraphic" result="FeGaussianBlur1089Out" stdDeviation="4 4"/></filter><mask id="wdu6bF"><use fill="#fff" xlink:href="#wdu6h"/></mask><filter id="wdu6bH" width="200%" height="200%" x="-50%" y="-50%"><feGaussianBlur in="SourceGraphic" result="FeGaussianBlur1100Out" stdDeviation="3.5 3.5"/></filter><mask id="wdu6bI"><use fill="#fff" xlink:href="#wdu6i"/></mask><filter id="wdu6bK" width="200%" height="200%" x="-50%" y="-50%"><feGaussianBlur in="SourceGraphic" result="FeGaussianBlur1109Out" stdDeviation="3.5 3.5"/></filter><mask id="wdu6bL"><use fill="#fff" xlink:href="#wdu6j"/></mask><filter id="wdu6bN" width="200%" height="200%" x="-50%" y="-50%"><feGaussianBlur in="SourceGraphic" result="FeGaussianBlur1120Out" stdDeviation="4 4"/></filter><mask id="wdu6bO"><use fill="#fff" xlink:href="#wdu6k"/></mask><filter id="wdu6bQ" width="200%" height="200%" x="-50%" y="-50%"><feGaussianBlur in="SourceGraphic" result="FeGaussianBlur1129Out" stdDeviation="4 4"/></filter><mask id="wdu6bR"><use fill="#fff" xlink:href="#wdu6l"/></mask><filter id="wdu6bT" width="200%" height="200%" x="-50%" y="-50%"><feGaussianBlur in="SourceGraphic" result="FeGaussianBlur1138Out" stdDeviation="4 4"/></filter><mask id="wdu6bU"><use fill="#fff" xlink:href="#wdu6m"/></mask><filter id="wdu6bW" width="200%" height="200%" x="-50%" y="-50%"><feGaussianBlur in="SourceGraphic" result="FeGaussianBlur1147Out" stdDeviation="4 4"/></filter><mask id="wdu6bX"><use fill="#fff" xlink:href="#wdu6n"/></mask><filter id="wdu6bZ" width="200%" height="200%" x="-50%" y="-50%"><feGaussianBlur in="SourceGraphic" result="FeGaussianBlur1156Out" stdDeviation="4 4"/></filter><mask id="wdu6ca"><use fill="#fff" xlink:href="#wdu6o"/></mask><filter id="wdu6cc" width="200%" height="200%" x="-50%" y="-50%"><feGaussianBlur in="SourceGraphic" result="FeGaussianBlur1165Out" stdDeviation="4 4"/></filter><mask id="wdu6cd"><use fill="#fff" xlink:href="#wdu6p"/></mask><filter id="wdu6cf" width="200%" height="200%" x="-50%" y="-50%"><feGaussianBlur in="SourceGraphic" result="FeGaussianBlur1174Out" stdDeviation="4 4"/></filter><mask id="wdu6cg"><use fill="#fff" xlink:href="#wdu6q"/></mask><filter id="wdu6ci" width="200%" height="200%" x="-50%" y="-50%"><feGaussianBlur in="SourceGraphic" result="FeGaussianBlur1185Out" stdDeviation="3.5 3.5"/></filter><mask id="wdu6cj"><use fill="#fff" xlink:href="#wdu6r"/></mask><filter id="wdu6cl" width="200%" height="200%" x="-50%" y="-50%"><feGaussianBlur in="SourceGraphic" result="FeGaussianBlur1194Out" stdDeviation="3.5 3.5"/></filter><mask id="wdu6cm"><use fill="#fff" xlink:href="#wdu6s"/></mask><filter id="wdu6co" width="200%" height="200%" x="-50%" y="-50%"><feGaussianBlur in="SourceGraphic" result="FeGaussianBlur1205Out" stdDeviation="3.5 3.5"/></filter><mask id="wdu6cp"><use fill="#fff" xlink:href="#wdu6t"/></mask><filter id="wdu6cr" width="200%" height="200%" x="-50%" y="-50%"><feGaussianBlur in="SourceGraphic" result="FeGaussianBlur1214Out" stdDeviation="3.5 3.5"/></filter><mask id="wdu6cs"><use fill="#fff" xlink:href="#wdu6u"/></mask><filter id="wdu6cu" width="200%" height="200%" x="-50%" y="-50%"><feGaussianBlur in="SourceGraphic" result="FeGaussianBlur1223Out" stdDeviation="4 4"/></filter><mask id="wdu6cv"><use fill="#fff" xlink:href="#wdu6v"/></mask><filter id="wdu6cx" width="200%" height="200%" x="-50%" y="-50%"><feGaussianBlur in="SourceGraphic" result="FeGaussianBlur1232Out" stdDeviation="4 4"/></filter><mask id="wdu6cy"><use fill="#fff" xlink:href="#wdu6w"/></mask><filter id="wdu6cA" width="200%" height="200%" x="-50%" y="-50%"><feGaussianBlur in="SourceGraphic" result="FeGaussianBlur1241Out" stdDeviation="4 4"/></filter><mask id="wdu6cB"><use fill="#fff" xlink:href="#wdu6x"/></mask><mask id="wdu6cD" width="2" height="2" x="-1" y="-1"><path fill="#fff" d="M-90-263h1683v858H-90z"/><use xlink:href="#wdu6y"/></mask><filter id="wdu6cC" width="1753" height="930" x="-125" y="-298" filterUnits="userSpaceOnUse"><feOffset dy="2" in="SourceGraphic" result="FeOffset1256Out"/><feGaussianBlur in="FeOffset1256Out" result="FeGaussianBlur1257Out" stdDeviation="10 10"/></filter><filter id="wdu6cF" width="200%" height="200%" x="-50%" y="-50%"><feGaussianBlur in="SourceGraphic" result="FeGaussianBlur1266Out" stdDeviation="4 4"/></filter><mask id="wdu6cG"><use fill="#fff" xlink:href="#wdu6z"/></mask><mask id="wdu6cK" width="2" height="2" x="-1" y="-1"><path fill="#fff" d="M-148-110h807v745h-807z"/><use xlink:href="#wdu6A"/></mask><filter id="wdu6cJ" width="877" height="817" x="-183" y="-145" filterUnits="userSpaceOnUse"><feOffset dy="2" in="SourceGraphic" result="FeOffset1291Out"/><feGaussianBlur in="FeOffset1291Out" result="FeGaussianBlur1292Out" stdDeviation="10 10"/></filter><filter id="wdu6cO" width="200%" height="200%" x="-50%" y="-50%"><feGaussianBlur in="SourceGraphic" result="FeGaussianBlur1313Out" stdDeviation="4 4"/></filter><mask id="wdu6cP"><use fill="#fff" xlink:href="#wdu6B"/></mask><filter id="wdu6cR" width="200%" height="200%" x="-50%" y="-50%"><feGaussianBlur in="SourceGraphic" result="FeGaussianBlur1322Out" stdDeviation="4 4"/></filter><mask id="wdu6cS"><use fill="#fff" xlink:href="#wdu6C"/></mask><filter id="wdu6cU" width="200%" height="200%" x="-50%" y="-50%"><feGaussianBlur in="SourceGraphic" result="FeGaussianBlur1331Out" stdDeviation="4 4"/></filter><mask id="wdu6cV"><use fill="#fff" xlink:href="#wdu6D"/></mask><filter id="wdu6cX" width="200%" height="200%" x="-50%" y="-50%"><feGaussianBlur in="SourceGraphic" result="FeGaussianBlur1340Out" stdDeviation="4 4"/></filter><mask id="wdu6cY"><use fill="#fff" xlink:href="#wdu6E"/></mask><filter id="wdu6da" width="200%" height="200%" x="-50%" y="-50%"><feGaussianBlur in="SourceGraphic" result="FeGaussianBlur1349Out" stdDeviation="4 4"/></filter><mask id="wdu6db"><use fill="#fff" xlink:href="#wdu6F"/></mask><filter id="wdu6dd" width="200%" height="200%" x="-50%" y="-50%"><feGaussianBlur in="SourceGraphic" result="FeGaussianBlur1358Out" stdDeviation="4 4"/></filter><mask id="wdu6de"><use fill="#fff" xlink:href="#wdu6G"/></mask><filter id="wdu6df" width="200%" height="200%" x="-50%" y="-50%"><feGaussianBlur in="SourceGraphic" result="FeGaussianBlur1369Out" stdDeviation="4 4"/></filter><mask id="wdu6dg"><use fill="#fff" xlink:href="#wdu6B"/></mask><filter id="wdu6dh" width="200%" height="200%" x="-50%" y="-50%"><feGaussianBlur in="SourceGraphic" result="FeGaussianBlur1378Out" stdDeviation="4 4"/></filter><mask id="wdu6di"><use fill="#fff" xlink:href="#wdu6C"/></mask><filter id="wdu6dj" width="200%" height="200%" x="-50%" y="-50%"><feGaussianBlur in="SourceGraphic" result="FeGaussianBlur1387Out" stdDeviation="4 4"/></filter><mask id="wdu6dk"><use fill="#fff" xlink:href="#wdu6D"/></mask><filter id="wdu6dl" width="200%" height="200%" x="-50%" y="-50%"><feGaussianBlur in="SourceGraphic" result="FeGaussianBlur1396Out" stdDeviation="4 4"/></filter><mask id="wdu6dm"><use fill="#fff" xlink:href="#wdu6E"/></mask><filter id="wdu6dn" width="200%" height="200%" x="-50%" y="-50%"><feGaussianBlur in="SourceGraphic" result="FeGaussianBlur1405Out" stdDeviation="4 4"/></filter><mask id="wdu6do"><use fill="#fff" xlink:href="#wdu6F"/></mask><filter id="wdu6dp" width="200%" height="200%" x="-50%" y="-50%"><feGaussianBlur in="SourceGraphic" result="FeGaussianBlur1414Out" stdDeviation="4 4"/></filter><mask id="wdu6dq"><use fill="#fff" xlink:href="#wdu6G"/></mask><filter id="wdu6ds" width="200%" height="200%" x="-50%" y="-50%"><feGaussianBlur in="SourceGraphic" result="FeGaussianBlur1425Out" stdDeviation="4 4"/></filter><mask id="wdu6dt"><use fill="#fff" xlink:href="#wdu6H"/></mask><filter id="wdu6dv" width="200%" height="200%" x="-50%" y="-50%"><feGaussianBlur in="SourceGraphic" result="FeGaussianBlur1434Out" stdDeviation="4 4"/></filter><mask id="wdu6dw"><use fill="#fff" xlink:href="#wdu6I"/></mask><filter id="wdu6dy" width="200%" height="200%" x="-50%" y="-50%"><feGaussianBlur in="SourceGraphic" result="FeGaussianBlur1443Out" stdDeviation="4 4"/></filter><mask id="wdu6dz"><use fill="#fff" xlink:href="#wdu6J"/></mask><filter id="wdu6dB" width="200%" height="200%" x="-50%" y="-50%"><feGaussianBlur in="SourceGraphic" result="FeGaussianBlur1452Out" stdDeviation="4 4"/></filter><mask id="wdu6dC"><use fill="#fff" xlink:href="#wdu6K"/></mask><filter id="wdu6dE" width="200%" height="200%" x="-50%" y="-50%"><feGaussianBlur in="SourceGraphic" result="FeGaussianBlur1461Out" stdDeviation="4 4"/></filter><mask id="wdu6dF"><use fill="#fff" xlink:href="#wdu6L"/></mask><filter id="wdu6dH" width="200%" height="200%" x="-50%" y="-50%"><feGaussianBlur in="SourceGraphic" result="FeGaussianBlur1470Out" stdDeviation="4 4"/></filter><mask id="wdu6dI"><use fill="#fff" xlink:href="#wdu6M"/></mask><filter id="wdu6dK" width="200%" height="200%" x="-50%" y="-50%"><feGaussianBlur in="SourceGraphic" result="FeGaussianBlur1479Out" stdDeviation="4 4"/></filter><mask id="wdu6dL"><use fill="#fff" xlink:href="#wdu6N"/></mask><filter id="wdu6dN" width="200%" height="200%" x="-50%" y="-50%"><feGaussianBlur in="SourceGraphic" result="FeGaussianBlur1490Out" stdDeviation="3.5 3.5"/></filter><mask id="wdu6dO"><use fill="#fff" xlink:href="#wdu6O"/></mask><filter id="wdu6dQ" width="200%" height="200%" x="-50%" y="-50%"><feGaussianBlur in="SourceGraphic" result="FeGaussianBlur1499Out" stdDeviation="3.5 3.5"/></filter><mask id="wdu6dR"><use fill="#fff" xlink:href="#wdu6P"/></mask><filter id="wdu6dT" width="200%" height="200%" x="-50%" y="-50%"><feGaussianBlur in="SourceGraphic" result="FeGaussianBlur1510Out" stdDeviation="4 4"/></filter><mask id="wdu6dU"><use fill="#fff" xlink:href="#wdu6Q"/></mask><filter id="wdu6dW" width="200%" height="200%" x="-50%" y="-50%"><feGaussianBlur in="SourceGraphic" result="FeGaussianBlur1519Out" stdDeviation="4 4"/></filter><mask id="wdu6dX"><use fill="#fff" xlink:href="#wdu6R"/></mask><filter id="wdu6dZ" width="200%" height="200%" x="-50%" y="-50%"><feGaussianBlur in="SourceGraphic" result="FeGaussianBlur1528Out" stdDeviation="4 4"/></filter><mask id="wdu6ea"><use fill="#fff" xlink:href="#wdu6S"/></mask><filter id="wdu6ec" width="200%" height="200%" x="-50%" y="-50%"><feGaussianBlur in="SourceGraphic" result="FeGaussianBlur1537Out" stdDeviation="4 4"/></filter><mask id="wdu6ed"><use fill="#fff" xlink:href="#wdu6T"/></mask><filter id="wdu6ef" width="200%" height="200%" x="-50%" y="-50%"><feGaussianBlur in="SourceGraphic" result="FeGaussianBlur1546Out" stdDeviation="4 4"/></filter><mask id="wdu6eg"><use fill="#fff" xlink:href="#wdu6U"/></mask><filter id="wdu6ei" width="200%" height="200%" x="-50%" y="-50%"><feGaussianBlur in="SourceGraphic" result="FeGaussianBlur1555Out" stdDeviation="4 4"/></filter><mask id="wdu6ej"><use fill="#fff" xlink:href="#wdu6V"/></mask><filter id="wdu6el" width="200%" height="200%" x="-50%" y="-50%"><feGaussianBlur in="SourceGraphic" result="FeGaussianBlur1564Out" stdDeviation="4 4"/></filter><mask id="wdu6em"><use fill="#fff" xlink:href="#wdu6W"/></mask><filter id="wdu6eo" width="200%" height="200%" x="-50%" y="-50%"><feGaussianBlur in="SourceGraphic" result="FeGaussianBlur1575Out" stdDeviation="3.5 3.5"/></filter><mask id="wdu6ep"><use fill="#fff" xlink:href="#wdu6X"/></mask><filter id="wdu6er" width="200%" height="200%" x="-50%" y="-50%"><feGaussianBlur in="SourceGraphic" result="FeGaussianBlur1584Out" stdDeviation="3.5 3.5"/></filter><mask id="wdu6es"><use fill="#fff" xlink:href="#wdu6Y"/></mask><filter id="wdu6eu" width="200%" height="200%" x="-50%" y="-50%"><feGaussianBlur in="SourceGraphic" result="FeGaussianBlur1595Out" stdDeviation="4 4"/></filter><mask id="wdu6ev"><use fill="#fff" xlink:href="#wdu6Z"/></mask><filter id="wdu6ex" width="200%" height="200%" x="-50%" y="-50%"><feGaussianBlur in="SourceGraphic" result="FeGaussianBlur1604Out" stdDeviation="4 4"/></filter><mask id="wdu6ey"><use fill="#fff" xlink:href="#wdu6aa"/></mask><filter id="wdu6eA" width="200%" height="200%" x="-50%" y="-50%"><feGaussianBlur in="SourceGraphic" result="FeGaussianBlur1613Out" stdDeviation="4 4"/></filter><mask id="wdu6eB"><use fill="#fff" xlink:href="#wdu6ab"/></mask><filter id="wdu6eD" width="200%" height="200%" x="-50%" y="-50%"><feGaussianBlur in="SourceGraphic" result="FeGaussianBlur1622Out" stdDeviation="4 4"/></filter><mask id="wdu6eE"><use fill="#fff" xlink:href="#wdu6ac"/></mask><filter id="wdu6eG" width="200%" height="200%" x="-50%" y="-50%"><feGaussianBlur in="SourceGraphic" result="FeGaussianBlur1631Out" stdDeviation="4 4"/></filter><mask id="wdu6eH"><use fill="#fff" xlink:href="#wdu6ad"/></mask><filter id="wdu6eJ" width="200%" height="200%" x="-50%" y="-50%"><feGaussianBlur in="SourceGraphic" result="FeGaussianBlur1640Out" stdDeviation="4 4"/></filter><mask id="wdu6eK"><use fill="#fff" xlink:href="#wdu6ae"/></mask><filter id="wdu6eM" width="200%" height="200%" x="-50%" y="-50%"><feGaussianBlur in="SourceGraphic" result="FeGaussianBlur1651Out" stdDeviation="4 4"/></filter><mask id="wdu6eN"><use fill="#fff" xlink:href="#wdu6af"/></mask><filter id="wdu6eP" width="200%" height="200%" x="-50%" y="-50%"><feGaussianBlur in="SourceGraphic" result="FeGaussianBlur1660Out" stdDeviation="4 4"/></filter><mask id="wdu6eQ"><use fill="#fff" xlink:href="#wdu6ag"/></mask><filter id="wdu6eS" width="200%" height="200%" x="-50%" y="-50%"><feGaussianBlur in="SourceGraphic" result="FeGaussianBlur1669Out" stdDeviation="4 4"/></filter><mask id="wdu6eT"><use fill="#fff" xlink:href="#wdu6ah"/></mask><mask id="wdu6eV" width="2" height="2" x="-1" y="-1"><path fill="#fff" d="M438-131h1060v786H438z"/><use xlink:href="#wdu6ai"/></mask><filter id="wdu6eU" width="1130" height="858" x="403" y="-166" filterUnits="userSpaceOnUse"><feOffset dy="2" in="SourceGraphic" result="FeOffset1684Out"/><feGaussianBlur in="FeOffset1684Out" result="FeGaussianBlur1685Out" stdDeviation="10 10"/></filter><filter id="wdu6eZ" width="200%" height="200%" x="-50%" y="-50%"><feGaussianBlur in="SourceGraphic" result="FeGaussianBlur1704Out" stdDeviation="4 4"/></filter><mask id="wdu6fa"><use fill="#fff" xlink:href="#wdu6aj"/></mask><filter id="wdu6fc" width="200%" height="200%" x="-50%" y="-50%"><feGaussianBlur in="SourceGraphic" result="FeGaussianBlur1713Out" stdDeviation="4 4"/></filter><mask id="wdu6fd"><use fill="#fff" xlink:href="#wdu6ak"/></mask><filter id="wdu6ff" width="200%" height="200%" x="-50%" y="-50%"><feGaussianBlur in="SourceGraphic" result="FeGaussianBlur1722Out" stdDeviation="4 4"/></filter><mask id="wdu6fg"><use fill="#fff" xlink:href="#wdu6al"/></mask><filter id="wdu6fi" width="200%" height="200%" x="-50%" y="-50%"><feGaussianBlur in="SourceGraphic" result="FeGaussianBlur1731Out" stdDeviation="4 4"/></filter><mask id="wdu6fj"><use fill="#fff" xlink:href="#wdu6am"/></mask><filter id="wdu6fl" width="200%" height="200%" x="-50%" y="-50%"><feGaussianBlur in="SourceGraphic" result="FeGaussianBlur1740Out" stdDeviation="4 4"/></filter><mask id="wdu6fm"><use fill="#fff" xlink:href="#wdu6an"/></mask><filter id="wdu6fo" width="200%" height="200%" x="-50%" y="-50%"><feGaussianBlur in="SourceGraphic" result="FeGaussianBlur1749Out" stdDeviation="4 4"/></filter><mask id="wdu6fp"><use fill="#fff" xlink:href="#wdu6ao"/></mask><filter id="wdu6fr" width="200%" height="200%" x="-50%" y="-50%"><feGaussianBlur in="SourceGraphic" result="FeGaussianBlur1760Out" stdDeviation="4 4"/></filter><mask id="wdu6fs"><use fill="#fff" xlink:href="#wdu6ap"/></mask><filter id="wdu6fu" width="200%" height="200%" x="-50%" y="-50%"><feGaussianBlur in="SourceGraphic" result="FeGaussianBlur1769Out" stdDeviation="4 4"/></filter><mask id="wdu6fv"><use fill="#fff" xlink:href="#wdu6aq"/></mask><filter id="wdu6fx" width="200%" height="200%" x="-50%" y="-50%"><feGaussianBlur in="SourceGraphic" result="FeGaussianBlur1778Out" stdDeviation="4 4"/></filter><mask id="wdu6fy"><use fill="#fff" xlink:href="#wdu6ar"/></mask><filter id="wdu6fA" width="200%" height="200%" x="-50%" y="-50%"><feGaussianBlur in="SourceGraphic" result="FeGaussianBlur1787Out" stdDeviation="4 4"/></filter><mask id="wdu6fB"><use fill="#fff" xlink:href="#wdu6as"/></mask><filter id="wdu6fD" width="200%" height="200%" x="-50%" y="-50%"><feGaussianBlur in="SourceGraphic" result="FeGaussianBlur1796Out" stdDeviation="4 4"/></filter><mask id="wdu6fE"><use fill="#fff" xlink:href="#wdu6at"/></mask><filter id="wdu6fG" width="200%" height="200%" x="-50%" y="-50%"><feGaussianBlur in="SourceGraphic" result="FeGaussianBlur1805Out" stdDeviation="4 4"/></filter><mask id="wdu6fH"><use fill="#fff" xlink:href="#wdu6au"/></mask><filter id="wdu6fJ" width="200%" height="200%" x="-50%" y="-50%"><feGaussianBlur in="SourceGraphic" result="FeGaussianBlur1814Out" stdDeviation="4 4"/></filter><mask id="wdu6fK"><use fill="#fff" xlink:href="#wdu6av"/></mask><filter id="wdu6fM" width="200%" height="200%" x="-50%" y="-50%"><feGaussianBlur in="SourceGraphic" result="FeGaussianBlur1823Out" stdDeviation="4 4"/></filter><mask id="wdu6fN"><use fill="#fff" xlink:href="#wdu6aw"/></mask><filter id="wdu6fP" width="200%" height="200%" x="-50%" y="-50%"><feGaussianBlur in="SourceGraphic" result="FeGaussianBlur1832Out" stdDeviation="4 4"/></filter><mask id="wdu6fQ"><use fill="#fff" xlink:href="#wdu6ax"/></mask><filter id="wdu6fS" width="200%" height="200%" x="-50%" y="-50%"><feGaussianBlur in="SourceGraphic" result="FeGaussianBlur1841Out" stdDeviation="4 4"/></filter><mask id="wdu6fT"><use fill="#fff" xlink:href="#wdu6ay"/></mask><filter id="wdu6fV" width="200%" height="200%" x="-50%" y="-50%"><feGaussianBlur in="SourceGraphic" result="FeGaussianBlur1850Out" stdDeviation="4 4"/></filter><mask id="wdu6fW"><use fill="#fff" xlink:href="#wdu6az"/></mask><filter id="wdu6fY" width="200%" height="200%" x="-50%" y="-50%"><feGaussianBlur in="SourceGraphic" result="FeGaussianBlur1859Out" stdDeviation="4 4"/></filter><mask id="wdu6fZ"><use fill="#fff" xlink:href="#wdu6aA"/></mask><filter id="wdu6gb" width="200%" height="200%" x="-50%" y="-50%"><feGaussianBlur in="SourceGraphic" result="FeGaussianBlur1870Out" stdDeviation="4 4"/></filter><mask id="wdu6gc"><use fill="#fff" xlink:href="#wdu6aB"/></mask><filter id="wdu6ge" width="200%" height="200%" x="-50%" y="-50%"><feGaussianBlur in="SourceGraphic" result="FeGaussianBlur1879Out" stdDeviation="4 4"/></filter><mask id="wdu6gf"><use fill="#fff" xlink:href="#wdu6aC"/></mask><filter id="wdu6gh" width="200%" height="200%" x="-50%" y="-50%"><feGaussianBlur in="SourceGraphic" result="FeGaussianBlur1888Out" stdDeviation="4 4"/></filter><mask id="wdu6gi"><use fill="#fff" xlink:href="#wdu6aD"/></mask><filter id="wdu6gk" width="200%" height="200%" x="-50%" y="-50%"><feGaussianBlur in="SourceGraphic" result="FeGaussianBlur1897Out" stdDeviation="4 4"/></filter><mask id="wdu6gl"><use fill="#fff" xlink:href="#wdu6aE"/></mask><filter id="wdu6gn" width="200%" height="200%" x="-50%" y="-50%"><feGaussianBlur in="SourceGraphic" result="FeGaussianBlur1906Out" stdDeviation="4 4"/></filter><mask id="wdu6go"><use fill="#fff" xlink:href="#wdu6aF"/></mask><filter id="wdu6gq" width="200%" height="200%" x="-50%" y="-50%"><feGaussianBlur in="SourceGraphic" result="FeGaussianBlur1915Out" stdDeviation="4 4"/></filter><mask id="wdu6gr"><use fill="#fff" xlink:href="#wdu6aG"/></mask><filter id="wdu6gt" width="200%" height="200%" x="-50%" y="-50%"><feGaussianBlur in="SourceGraphic" result="FeGaussianBlur1926Out" stdDeviation="4 4"/></filter><mask id="wdu6gu"><use fill="#fff" xlink:href="#wdu6aH"/></mask><filter id="wdu6gw" width="200%" height="200%" x="-50%" y="-50%"><feGaussianBlur in="SourceGraphic" result="FeGaussianBlur1935Out" stdDeviation="4 4"/></filter><mask id="wdu6gx"><use fill="#fff" xlink:href="#wdu6aI"/></mask><filter id="wdu6gz" width="200%" height="200%" x="-50%" y="-50%"><feGaussianBlur in="SourceGraphic" result="FeGaussianBlur1944Out" stdDeviation="4 4"/></filter><mask id="wdu6gA"><use fill="#fff" xlink:href="#wdu6aJ"/></mask><filter id="wdu6gC" width="200%" height="200%" x="-50%" y="-50%"><feGaussianBlur in="SourceGraphic" result="FeGaussianBlur1953Out" stdDeviation="4 4"/></filter><mask id="wdu6gD"><use fill="#fff" xlink:href="#wdu6aK"/></mask><filter id="wdu6gF" width="200%" height="200%" x="-50%" y="-50%"><feGaussianBlur in="SourceGraphic" result="FeGaussianBlur1962Out" stdDeviation="4 4"/></filter><mask id="wdu6gG"><use fill="#fff" xlink:href="#wdu6aL"/></mask><filter id="wdu6gI" width="200%" height="200%" x="-50%" y="-50%"><feGaussianBlur in="SourceGraphic" result="FeGaussianBlur1971Out" stdDeviation="4 4"/></filter><mask id="wdu6gJ"><use fill="#fff" xlink:href="#wdu6aM"/></mask><filter id="wdu6gL" width="200%" height="200%" x="-50%" y="-50%"><feGaussianBlur in="SourceGraphic" result="FeGaussianBlur1980Out" stdDeviation="4 4"/></filter><mask id="wdu6gM"><use fill="#fff" xlink:href="#wdu6aN"/></mask><filter id="wdu6gO" width="200%" height="200%" x="-50%" y="-50%"><feGaussianBlur in="SourceGraphic" result="FeGaussianBlur1989Out" stdDeviation="4 4"/></filter><mask id="wdu6gP"><use fill="#fff" xlink:href="#wdu6aO"/></mask><filter id="wdu6gR" width="200%" height="200%" x="-50%" y="-50%"><feGaussianBlur in="SourceGraphic" result="FeGaussianBlur1998Out" stdDeviation="4 4"/></filter><mask id="wdu6gS"><use fill="#fff" xlink:href="#wdu6aP"/></mask><filter id="wdu6gU" width="200%" height="200%" x="-50%" y="-50%"><feGaussianBlur in="SourceGraphic" result="FeGaussianBlur2007Out" stdDeviation="4 4"/></filter><mask id="wdu6gV"><use fill="#fff" xlink:href="#wdu6aQ"/></mask><filter id="wdu6gX" width="200%" height="200%" x="-50%" y="-50%"><feGaussianBlur in="SourceGraphic" result="FeGaussianBlur2016Out" stdDeviation="4 4"/></filter><mask id="wdu6gY"><use fill="#fff" xlink:href="#wdu6aR"/></mask><filter id="wdu6ha" width="200%" height="200%" x="-50%" y="-50%"><feGaussianBlur in="SourceGraphic" result="FeGaussianBlur2025Out" stdDeviation="4 4"/></filter><mask id="wdu6hb"><use fill="#fff" xlink:href="#wdu6aS"/></mask><filter id="wdu6hd" width="200%" height="200%" x="-50%" y="-50%"><feGaussianBlur in="SourceGraphic" result="FeGaussianBlur2034Out" stdDeviation="4 4"/></filter><mask id="wdu6he"><use fill="#fff" xlink:href="#wdu6aT"/></mask><filter id="wdu6hg" width="200%" height="200%" x="-50%" y="-50%"><feGaussianBlur in="SourceGraphic" result="FeGaussianBlur2045Out" stdDeviation="3.5 3.5"/></filter><mask id="wdu6hh"><use fill="#fff" xlink:href="#wdu6aU"/></mask><filter id="wdu6hj" width="200%" height="200%" x="-50%" y="-50%"><feGaussianBlur in="SourceGraphic" result="FeGaussianBlur2054Out" stdDeviation="3.5 3.5"/></filter><mask id="wdu6hk"><use fill="#fff" xlink:href="#wdu6aV"/></mask><filter id="wdu6hm" width="200%" height="200%" x="-50%" y="-50%"><feGaussianBlur in="SourceGraphic" result="FeGaussianBlur2065Out" stdDeviation="4 4"/></filter><mask id="wdu6hn"><use fill="#fff" xlink:href="#wdu6aW"/></mask><filter id="wdu6hp" width="200%" height="200%" x="-50%" y="-50%"><feGaussianBlur in="SourceGraphic" result="FeGaussianBlur2074Out" stdDeviation="4 4"/></filter><mask id="wdu6hq"><use fill="#fff" xlink:href="#wdu6aX"/></mask><filter id="wdu6hs" width="200%" height="200%" x="-50%" y="-50%"><feGaussianBlur in="SourceGraphic" result="FeGaussianBlur2083Out" stdDeviation="4 4"/></filter><mask id="wdu6ht"><use fill="#fff" xlink:href="#wdu6aY"/></mask><filter id="wdu6hv" width="200%" height="200%" x="-50%" y="-50%"><feGaussianBlur in="SourceGraphic" result="FeGaussianBlur2092Out" stdDeviation="4 4"/></filter><mask id="wdu6hw"><use fill="#fff" xlink:href="#wdu6aZ"/></mask><filter id="wdu6hy" width="200%" height="200%" x="-50%" y="-50%"><feGaussianBlur in="SourceGraphic" result="FeGaussianBlur2101Out" stdDeviation="4 4"/></filter><mask id="wdu6hz"><use fill="#fff" xlink:href="#wdu6ba"/></mask><filter id="wdu6hB" width="200%" height="200%" x="-50%" y="-50%"><feGaussianBlur in="SourceGraphic" result="FeGaussianBlur2110Out" stdDeviation="4 4"/></filter><mask id="wdu6hC"><use fill="#fff" xlink:href="#wdu6bb"/></mask><filter id="wdu6hE" width="200%" height="200%" x="-50%" y="-50%"><feGaussianBlur in="SourceGraphic" result="FeGaussianBlur2119Out" stdDeviation="4 4"/></filter><mask id="wdu6hF"><use fill="#fff" xlink:href="#wdu6bc"/></mask><filter id="wdu6hH" width="200%" height="200%" x="-50%" y="-50%"><feGaussianBlur in="SourceGraphic" result="FeGaussianBlur2130Out" stdDeviation="3.5 3.5"/></filter><mask id="wdu6hI"><use fill="#fff" xlink:href="#wdu6bd"/></mask><filter id="wdu6hK" width="200%" height="200%" x="-50%" y="-50%"><feGaussianBlur in="SourceGraphic" result="FeGaussianBlur2139Out" stdDeviation="3.5 3.5"/></filter><mask id="wdu6hL"><use fill="#fff" xlink:href="#wdu6be"/></mask><filter id="wdu6hN" width="200%" height="200%" x="-50%" y="-50%"><feGaussianBlur in="SourceGraphic" result="FeGaussianBlur2148Out" stdDeviation="4 4"/></filter><mask id="wdu6hO"><use fill="#fff" xlink:href="#wdu6bf"/></mask><clipPath id="wdu6bh"><use xlink:href="#wdu6bg"/></clipPath></defs><g><g transform="translate(0 -50)"><g><use fill="#ff8d7b" xlink:href="#wdu6bg"/></g><g clip-path="url(#wdu6bh)" transform="rotate(-30 7 289)"><use fill="#bb443b" stroke="#bb443b" stroke-width="0" filter="url(#wdu6bj)" mask="url(&quot;#wdu6bk&quot;)" xlink:href="#wdu6bi"/></g><g clip-path="url(#wdu6bh)" transform="rotate(160 1288.5 149)"><g transform="rotate(40 1208 119.5)"><use fill="#bb443b" stroke="#bb443b" stroke-width="0" filter="url(#wdu6bm)" mask="url(&quot;#wdu6bn&quot;)" xlink:href="#wdu6bl"/></g><g transform="rotate(40 1434.5 201.5)"><use fill="#bb443b" stroke="#bb443b" stroke-width="0" filter="url(#wdu6bp)" mask="url(&quot;#wdu6bq&quot;)" xlink:href="#wdu6bo"/></g><g transform="rotate(40 1144 105)"><use fill="#bb443b" stroke="#bb443b" stroke-width="0" filter="url(#wdu6bs)" mask="url(&quot;#wdu6bt&quot;)" xlink:href="#wdu6br"/></g><g transform="rotate(40 1272 146)"><use fill="#bb443b" stroke="#bb443b" stroke-width="0" filter="url(#wdu6bv)" mask="url(&quot;#wdu6bw&quot;)" xlink:href="#wdu6bu"/></g><g transform="rotate(40 1085.5 77.5)"><use fill="#bb443b" stroke="#bb443b" stroke-width="0" filter="url(#wdu6by)" mask="url(&quot;#wdu6bz&quot;)" xlink:href="#wdu6bx"/></g><g transform="rotate(40 1369.5 177)"><use fill="#bb443b" stroke="#bb443b" stroke-width="0" filter="url(#wdu6bB)" mask="url(&quot;#wdu6bC&quot;)" xlink:href="#wdu6bA"/></g><g transform="rotate(40 1317.5 158.5)"><use fill="#bb443b" stroke="#bb443b" stroke-width="0" filter="url(#wdu6bE)" mask="url(&quot;#wdu6bF&quot;)" xlink:href="#wdu6bD"/></g><g transform="rotate(40 1483.5 219)"><g><use fill="#bb443b" stroke="#bb443b" stroke-width="0" filter="url(#wdu6bH)" mask="url(&quot;#wdu6bI&quot;)" xlink:href="#wdu6bG"/></g><g><use fill="#bb443b" stroke="#bb443b" stroke-width="0" filter="url(#wdu6bK)" mask="url(&quot;#wdu6bL&quot;)" xlink:href="#wdu6bJ"/></g></g></g><g clip-path="url(#wdu6bh)" transform="rotate(160 951.5 72)"><g transform="rotate(40 871 42.5)"><use fill="#bb443b" stroke="#bb443b" stroke-width="0" filter="url(#wdu6bN)" mask="url(&quot;#wdu6bO&quot;)" xlink:href="#wdu6bM"/></g><g transform="rotate(40 1097.5 124.5)"><use fill="#bb443b" stroke="#bb443b" stroke-width="0" filter="url(#wdu6bQ)" mask="url(&quot;#wdu6bR&quot;)" xlink:href="#wdu6bP"/></g><g transform="rotate(40 807 28)"><use fill="#bb443b" stroke="#bb443b" stroke-width="0" filter="url(#wdu6bT)" mask="url(&quot;#wdu6bU&quot;)" xlink:href="#wdu6bS"/></g><g transform="rotate(40 935 69)"><use fill="#bb443b" stroke="#bb443b" stroke-width="0" filter="url(#wdu6bW)" mask="url(&quot;#wdu6bX&quot;)" xlink:href="#wdu6bV"/></g><g transform="rotate(40 748.5 .5)"><use fill="#bb443b" stroke="#bb443b" stroke-width="0" filter="url(#wdu6bZ)" mask="url(&quot;#wdu6ca&quot;)" xlink:href="#wdu6bY"/></g><g transform="rotate(40 1032.5 100)"><use fill="#bb443b" stroke="#bb443b" stroke-width="0" filter="url(#wdu6cc)" mask="url(&quot;#wdu6cd&quot;)" xlink:href="#wdu6cb"/></g><g transform="rotate(40 980.5 81.5)"><use fill="#bb443b" stroke="#bb443b" stroke-width="0" filter="url(#wdu6cf)" mask="url(&quot;#wdu6cg&quot;)" xlink:href="#wdu6ce"/></g><g transform="rotate(40 1146.5 142)"><g><use fill="#bb443b" stroke="#bb443b" stroke-width="0" filter="url(#wdu6ci)" mask="url(&quot;#wdu6cj&quot;)" xlink:href="#wdu6ch"/></g><g><use fill="#bb443b" stroke="#bb443b" stroke-width="0" filter="url(#wdu6cl)" mask="url(&quot;#wdu6cm&quot;)" xlink:href="#wdu6ck"/></g></g></g><g clip-path="url(#wdu6bh)" transform="rotate(-50 72 336)"><g><use fill="#bb443b" stroke="#bb443b" stroke-width="0" filter="url(#wdu6co)" mask="url(&quot;#wdu6cp&quot;)" xlink:href="#wdu6cn"/></g><g><use fill="#bb443b" stroke="#bb443b" stroke-width="0" filter="url(#wdu6cr)" mask="url(&quot;#wdu6cs&quot;)" xlink:href="#wdu6cq"/></g></g><g clip-path="url(#wdu6bh)" transform="rotate(20 530.5 282)"><use fill="#bb443b" stroke="#bb443b" stroke-width="0" filter="url(#wdu6cu)" mask="url(&quot;#wdu6cv&quot;)" xlink:href="#wdu6ct"/></g><g clip-path="url(#wdu6bh)" transform="rotate(20 601 301)"><use fill="#bb443b" stroke="#bb443b" stroke-width="0" filter="url(#wdu6cx)" mask="url(&quot;#wdu6cy&quot;)" xlink:href="#wdu6cw"/></g><g clip-path="url(#wdu6bh)" transform="rotate(20 463.5 232.5)"><use fill="#bb443b" stroke="#bb443b" stroke-width="0" filter="url(#wdu6cA)" mask="url(&quot;#wdu6cB&quot;)" xlink:href="#wdu6cz"/></g><g clip-path="url(#wdu6bh)" transform="rotate(20 751.5 166)"><g filter="url(#wdu6cC)"><use fill="none" stroke-opacity=".47" stroke-width="0" mask="url(&quot;#wdu6cD&quot;)" xlink:href="#wdu6y"/><use fill-opacity=".47" xlink:href="#wdu6y"/></g><use fill="#ff8d7b" xlink:href="#wdu6y"/></g><g clip-path="url(#wdu6bh)"><use fill="#bb443b" fill-opacity=".71" stroke="#bb443b" stroke-opacity=".71" stroke-width="0" filter="url(#wdu6cF)" mask="url(&quot;#wdu6cG&quot;)" xlink:href="#wdu6cE"/></g><g clip-path="url(#wdu6bh)" transform="rotate(20 1121.5 161.5)"><use fill="#e05d53" xlink:href="#wdu6cH"/></g><g clip-path="url(#wdu6bh)" transform="rotate(20 586.5 242.5)"><use fill="#e05d53" xlink:href="#wdu6cI"/></g><g clip-path="url(#wdu6bh)" transform="rotate(40 255.5 262.5)"><g filter="url(#wdu6cJ)"><use fill="none" stroke-opacity=".47" stroke-width="0" mask="url(&quot;#wdu6cK&quot;)" xlink:href="#wdu6A"/><use fill-opacity=".47" xlink:href="#wdu6A"/></g><use fill="#ff8d7b" xlink:href="#wdu6A"/></g><g clip-path="url(#wdu6bh)" transform="rotate(40 339 162)"><use fill="#e05d53" xlink:href="#wdu6cL"/></g><g clip-path="url(#wdu6bh)" transform="rotate(40 152.5 350)"><use fill="#e05d53" xlink:href="#wdu6cM"/></g><g clip-path="url(#wdu6bh)" transform="rotate(110 1073 268)"><g transform="rotate(40 1156 215)"><use fill="#bb443b" stroke="#bb443b" stroke-width="0" filter="url(#wdu6cO)" mask="url(&quot;#wdu6cP&quot;)" xlink:href="#wdu6cN"/></g><g transform="rotate(40 1097.5 249)"><use fill="#bb443b" stroke="#bb443b" stroke-width="0" filter="url(#wdu6cR)" mask="url(&quot;#wdu6cS&quot;)" xlink:href="#wdu6cQ"/></g><g transform="rotate(40 1223 177.5)"><use fill="#bb443b" stroke="#bb443b" stroke-width="0" filter="url(#wdu6cU)" mask="url(&quot;#wdu6cV&quot;)" xlink:href="#wdu6cT"/></g><g transform="rotate(40 961 329)"><use fill="#bb443b" stroke="#bb443b" stroke-width="0" filter="url(#wdu6cX)" mask="url(&quot;#wdu6cY&quot;)" xlink:href="#wdu6cW"/></g><g transform="rotate(40 912 360.5)"><use fill="#bb443b" stroke="#bb443b" stroke-width="0" filter="url(#wdu6da)" mask="url(&quot;#wdu6db&quot;)" xlink:href="#wdu6cZ"/></g><g transform="rotate(40 1030.5 285)"><use fill="#bb443b" stroke="#bb443b" stroke-width="0" filter="url(#wdu6dd)" mask="url(&quot;#wdu6de&quot;)" xlink:href="#wdu6dc"/></g></g><g clip-path="url(#wdu6bh)" transform="rotate(110 1073 268)"><g transform="rotate(40 1156 215)"><use fill="#bb443b" stroke="#bb443b" stroke-width="0" filter="url(#wdu6df)" mask="url(&quot;#wdu6dg&quot;)" xlink:href="#wdu6cN"/></g><g transform="rotate(40 1097.5 249)"><use fill="#bb443b" stroke="#bb443b" stroke-width="0" filter="url(#wdu6dh)" mask="url(&quot;#wdu6di&quot;)" xlink:href="#wdu6cQ"/></g><g transform="rotate(40 1223 177.5)"><use fill="#bb443b" stroke="#bb443b" stroke-width="0" filter="url(#wdu6dj)" mask="url(&quot;#wdu6dk&quot;)" xlink:href="#wdu6cT"/></g><g transform="rotate(40 961 329)"><use fill="#bb443b" stroke="#bb443b" stroke-width="0" filter="url(#wdu6dl)" mask="url(&quot;#wdu6dm&quot;)" xlink:href="#wdu6cW"/></g><g transform="rotate(40 912 360.5)"><use fill="#bb443b" stroke="#bb443b" stroke-width="0" filter="url(#wdu6dn)" mask="url(&quot;#wdu6do&quot;)" xlink:href="#wdu6cZ"/></g><g transform="rotate(40 1030.5 285)"><use fill="#bb443b" stroke="#bb443b" stroke-width="0" filter="url(#wdu6dp)" mask="url(&quot;#wdu6dq&quot;)" xlink:href="#wdu6dc"/></g></g><g clip-path="url(#wdu6bh)" transform="rotate(-20 1470.5 359)"><g transform="rotate(40 1551 388.5)"><use fill="#bb443b" stroke="#bb443b" stroke-width="0" filter="url(#wdu6ds)" mask="url(&quot;#wdu6dt&quot;)" xlink:href="#wdu6dr"/></g><g transform="rotate(40 1324.5 306.5)"><use fill="#bb443b" stroke="#bb443b" stroke-width="0" filter="url(#wdu6dv)" mask="url(&quot;#wdu6dw&quot;)" xlink:href="#wdu6du"/></g><g transform="rotate(40 1615 403)"><use fill="#bb443b" stroke="#bb443b" stroke-width="0" filter="url(#wdu6dy)" mask="url(&quot;#wdu6dz&quot;)" xlink:href="#wdu6dx"/></g><g transform="rotate(40 1487 362)"><use fill="#bb443b" stroke="#bb443b" stroke-width="0" filter="url(#wdu6dB)" mask="url(&quot;#wdu6dC&quot;)" xlink:href="#wdu6dA"/></g><g transform="rotate(40 1673.5 430.5)"><use fill="#bb443b" stroke="#bb443b" stroke-width="0" filter="url(#wdu6dE)" mask="url(&quot;#wdu6dF&quot;)" xlink:href="#wdu6dD"/></g><g transform="rotate(40 1389.5 331)"><use fill="#bb443b" stroke="#bb443b" stroke-width="0" filter="url(#wdu6dH)" mask="url(&quot;#wdu6dI&quot;)" xlink:href="#wdu6dG"/></g><g transform="rotate(40 1441.5 349.5)"><use fill="#bb443b" stroke="#bb443b" stroke-width="0" filter="url(#wdu6dK)" mask="url(&quot;#wdu6dL&quot;)" xlink:href="#wdu6dJ"/></g><g transform="rotate(40 1275.5 289)"><g><use fill="#bb443b" stroke="#bb443b" stroke-width="0" filter="url(#wdu6dN)" mask="url(&quot;#wdu6dO&quot;)" xlink:href="#wdu6dM"/></g><g><use fill="#bb443b" stroke="#bb443b" stroke-width="0" filter="url(#wdu6dQ)" mask="url(&quot;#wdu6dR&quot;)" xlink:href="#wdu6dP"/></g></g></g><g clip-path="url(#wdu6bh)" transform="rotate(-20 1010.5 296)"><g transform="rotate(40 1091 325.5)"><use fill="#bb443b" stroke="#bb443b" stroke-width="0" filter="url(#wdu6dT)" mask="url(&quot;#wdu6dU&quot;)" xlink:href="#wdu6dS"/></g><g transform="rotate(40 864.5 243.5)"><use fill="#bb443b" stroke="#bb443b" stroke-width="0" filter="url(#wdu6dW)" mask="url(&quot;#wdu6dX&quot;)" xlink:href="#wdu6dV"/></g><g transform="rotate(40 1155 340)"><use fill="#bb443b" stroke="#bb443b" stroke-width="0" filter="url(#wdu6dZ)" mask="url(&quot;#wdu6ea&quot;)" xlink:href="#wdu6dY"/></g><g transform="rotate(40 1027 299)"><use fill="#bb443b" stroke="#bb443b" stroke-width="0" filter="url(#wdu6ec)" mask="url(&quot;#wdu6ed&quot;)" xlink:href="#wdu6eb"/></g><g transform="rotate(40 1213.5 367.5)"><use fill="#bb443b" stroke="#bb443b" stroke-width="0" filter="url(#wdu6ef)" mask="url(&quot;#wdu6eg&quot;)" xlink:href="#wdu6ee"/></g><g transform="rotate(40 929.5 268)"><use fill="#bb443b" stroke="#bb443b" stroke-width="0" filter="url(#wdu6ei)" mask="url(&quot;#wdu6ej&quot;)" xlink:href="#wdu6eh"/></g><g transform="rotate(40 981.5 286.5)"><use fill="#bb443b" stroke="#bb443b" stroke-width="0" filter="url(#wdu6el)" mask="url(&quot;#wdu6em&quot;)" xlink:href="#wdu6ek"/></g><g transform="rotate(40 815.5 226)"><g><use fill="#bb443b" stroke="#bb443b" stroke-width="0" filter="url(#wdu6eo)" mask="url(&quot;#wdu6ep&quot;)" xlink:href="#wdu6en"/></g><g><use fill="#bb443b" stroke="#bb443b" stroke-width="0" filter="url(#wdu6er)" mask="url(&quot;#wdu6es&quot;)" xlink:href="#wdu6eq"/></g></g></g><g clip-path="url(#wdu6bh)" transform="rotate(-20 967.5 172.5)"><g transform="rotate(40 862 143)"><use fill="#bb443b" stroke="#bb443b" stroke-width="0" filter="url(#wdu6eu)" mask="url(&quot;#wdu6ev&quot;)" xlink:href="#wdu6et"/></g><g transform="rotate(40 932.5 171.5)"><use fill="#bb443b" stroke="#bb443b" stroke-width="0" filter="url(#wdu6ex)" mask="url(&quot;#wdu6ey&quot;)" xlink:href="#wdu6ew"/></g><g transform="rotate(40 799.5 107)"><use fill="#bb443b" stroke="#bb443b" stroke-width="0" filter="url(#wdu6eA)" mask="url(&quot;#wdu6eB&quot;)" xlink:href="#wdu6ez"/></g><g transform="rotate(40 1074.5 221)"><use fill="#bb443b" stroke="#bb443b" stroke-width="0" filter="url(#wdu6eD)" mask="url(&quot;#wdu6eE&quot;)" xlink:href="#wdu6eC"/></g><g transform="rotate(40 1141 236.5)"><use fill="#bb443b" stroke="#bb443b" stroke-width="0" filter="url(#wdu6eG)" mask="url(&quot;#wdu6eH&quot;)" xlink:href="#wdu6eF"/></g><g transform="rotate(40 997.5 195.5)"><use fill="#bb443b" stroke="#bb443b" stroke-width="0" filter="url(#wdu6eJ)" mask="url(&quot;#wdu6eK&quot;)" xlink:href="#wdu6eI"/></g></g><g clip-path="url(#wdu6bh)" transform="rotate(-20 787 242.5)"><g transform="rotate(40 794.5 242.5)"><use fill="#bb443b" stroke="#bb443b" stroke-width="0" filter="url(#wdu6eM)" mask="url(&quot;#wdu6eN&quot;)" xlink:href="#wdu6eL"/></g><g transform="rotate(40 860 258.5)"><use fill="#bb443b" stroke="#bb443b" stroke-width="0" filter="url(#wdu6eP)" mask="url(&quot;#wdu6eQ&quot;)" xlink:href="#wdu6eO"/></g><g transform="rotate(40 716.5 217.5)"><use fill="#bb443b" stroke="#bb443b" stroke-width="0" filter="url(#wdu6eS)" mask="url(&quot;#wdu6eT&quot;)" xlink:href="#wdu6eR"/></g></g><g clip-path="url(#wdu6bh)" transform="rotate(150 968 262)"><g filter="url(#wdu6eU)"><use fill="none" stroke-opacity=".47" stroke-width="0" mask="url(&quot;#wdu6eV&quot;)" xlink:href="#wdu6ai"/><use fill-opacity=".47" xlink:href="#wdu6ai"/></g><use fill="#ff8d7b" xlink:href="#wdu6ai"/></g><g clip-path="url(#wdu6bh)" transform="rotate(-30 780 218.5)"><use fill="#e05d53" xlink:href="#wdu6eW"/></g><g clip-path="url(#wdu6bh)" transform="rotate(-30 1238 259.5)"><use fill="#e05d53" xlink:href="#wdu6eX"/></g><g clip-path="url(#wdu6bh)" transform="rotate(20 725 98.5)"><use fill="#bb443b" stroke="#bb443b" stroke-width="0" filter="url(#wdu6eZ)" mask="url(&quot;#wdu6fa&quot;)" xlink:href="#wdu6eY"/></g><g clip-path="url(#wdu6bh)" transform="rotate(20 659 194.5)"><use fill="#bb443b" stroke="#bb443b" stroke-width="0" filter="url(#wdu6fc)" mask="url(&quot;#wdu6fd&quot;)" xlink:href="#wdu6fb"/></g><g clip-path="url(#wdu6bh)" transform="rotate(20 441 116)"><use fill="#bb443b" stroke="#bb443b" stroke-width="0" filter="url(#wdu6ff)" mask="url(&quot;#wdu6fg&quot;)" xlink:href="#wdu6fe"/></g><g clip-path="url(#wdu6bh)" transform="rotate(20 644.5 68.5)"><use fill="#bb443b" stroke="#bb443b" stroke-width="0" filter="url(#wdu6fi)" mask="url(&quot;#wdu6fj&quot;)" xlink:href="#wdu6fh"/></g><g clip-path="url(#wdu6bh)" transform="rotate(20 516 142.5)"><use fill="#bb443b" stroke="#bb443b" stroke-width="0" filter="url(#wdu6fl)" mask="url(&quot;#wdu6fm&quot;)" xlink:href="#wdu6fk"/></g><g clip-path="url(#wdu6bh)" transform="rotate(20 589 173)"><use fill="#bb443b" stroke="#bb443b" stroke-width="0" filter="url(#wdu6fo)" mask="url(&quot;#wdu6fp&quot;)" xlink:href="#wdu6fn"/></g><g clip-path="url(#wdu6bh)" transform="scale(1 -1) rotate(-10 -3281.303 0)"><g transform="rotate(20 782 308)"><use fill="#bb443b" stroke="#bb443b" stroke-width="0" filter="url(#wdu6fr)" mask="url(&quot;#wdu6fs&quot;)" xlink:href="#wdu6fq"/></g><g transform="rotate(20 653.5 381.5)"><use fill="#bb443b" stroke="#bb443b" stroke-width="0" filter="url(#wdu6fu)" mask="url(&quot;#wdu6fv&quot;)" xlink:href="#wdu6ft"/></g><g transform="rotate(20 719 339.5)"><use fill="#bb443b" stroke="#bb443b" stroke-width="0" filter="url(#wdu6fx)" mask="url(&quot;#wdu6fy&quot;)" xlink:href="#wdu6fw"/></g></g><g clip-path="url(#wdu6bh)" transform="rotate(20 584.5 48.5)"><use fill="#bb443b" stroke="#bb443b" stroke-width="0" filter="url(#wdu6fA)" mask="url(&quot;#wdu6fB&quot;)" xlink:href="#wdu6fz"/></g><g clip-path="url(#wdu6bh)" transform="rotate(20 385.5 101)"><use fill="#bb443b" stroke="#bb443b" stroke-width="0" filter="url(#wdu6fD)" mask="url(&quot;#wdu6fE&quot;)" xlink:href="#wdu6fC"/></g><g clip-path="url(#wdu6bh)" transform="rotate(20 499.5 21)"><use fill="#bb443b" stroke="#bb443b" stroke-width="0" filter="url(#wdu6fG)" mask="url(&quot;#wdu6fH&quot;)" xlink:href="#wdu6fF"/></g><g clip-path="url(#wdu6bh)" transform="rotate(40 49.5 161)"><use fill="#bb443b" stroke="#bb443b" stroke-width="0" filter="url(#wdu6fJ)" mask="url(&quot;#wdu6fK&quot;)" xlink:href="#wdu6fI"/></g><g clip-path="url(#wdu6bh)" transform="rotate(40 104 211.5)"><use fill="#bb443b" stroke="#bb443b" stroke-width="0" filter="url(#wdu6fM)" mask="url(&quot;#wdu6fN&quot;)" xlink:href="#wdu6fL"/></g><g clip-path="url(#wdu6bh)" transform="rotate(40 -3.5 105)"><use fill="#bb443b" stroke="#bb443b" stroke-width="0" filter="url(#wdu6fP)" mask="url(&quot;#wdu6fQ&quot;)" xlink:href="#wdu6fO"/></g><g clip-path="url(#wdu6bh)" transform="rotate(40 223 307)"><use fill="#bb443b" stroke="#bb443b" stroke-width="0" filter="url(#wdu6fS)" mask="url(&quot;#wdu6fT&quot;)" xlink:href="#wdu6fR"/></g><g clip-path="url(#wdu6bh)" transform="rotate(40 275 342)"><use fill="#bb443b" stroke="#bb443b" stroke-width="0" filter="url(#wdu6fV)" mask="url(&quot;#wdu6fW&quot;)" xlink:href="#wdu6fU"/></g><g clip-path="url(#wdu6bh)" transform="rotate(40 159 256.5)"><use fill="#bb443b" stroke="#bb443b" stroke-width="0" filter="url(#wdu6fY)" mask="url(&quot;#wdu6fZ&quot;)" xlink:href="#wdu6fX"/></g><g clip-path="url(#wdu6bh)" transform="rotate(110 1073 138)"><g transform="rotate(40 1156 85)"><use fill="#bb443b" stroke="#bb443b" stroke-width="0" filter="url(#wdu6gb)" mask="url(&quot;#wdu6gc&quot;)" xlink:href="#wdu6ga"/></g><g transform="rotate(40 1097.5 119)"><use fill="#bb443b" stroke="#bb443b" stroke-width="0" filter="url(#wdu6ge)" mask="url(&quot;#wdu6gf&quot;)" xlink:href="#wdu6gd"/></g><g transform="rotate(40 1223 47.5)"><use fill="#bb443b" stroke="#bb443b" stroke-width="0" filter="url(#wdu6gh)" mask="url(&quot;#wdu6gi&quot;)" xlink:href="#wdu6gg"/></g><g transform="rotate(40 961 199)"><use fill="#bb443b" stroke="#bb443b" stroke-width="0" filter="url(#wdu6gk)" mask="url(&quot;#wdu6gl&quot;)" xlink:href="#wdu6gj"/></g><g transform="rotate(40 912 230.5)"><use fill="#bb443b" stroke="#bb443b" stroke-width="0" filter="url(#wdu6gn)" mask="url(&quot;#wdu6go&quot;)" xlink:href="#wdu6gm"/></g><g transform="rotate(40 1030.5 155)"><use fill="#bb443b" stroke="#bb443b" stroke-width="0" filter="url(#wdu6gq)" mask="url(&quot;#wdu6gr&quot;)" xlink:href="#wdu6gp"/></g></g><g clip-path="url(#wdu6bh)" transform="rotate(110 840 403)"><g transform="rotate(40 923 350)"><use fill="#bb443b" stroke="#bb443b" stroke-width="0" filter="url(#wdu6gt)" mask="url(&quot;#wdu6gu&quot;)" xlink:href="#wdu6gs"/></g><g transform="rotate(40 864.5 384)"><use fill="#bb443b" stroke="#bb443b" stroke-width="0" filter="url(#wdu6gw)" mask="url(&quot;#wdu6gx&quot;)" xlink:href="#wdu6gv"/></g><g transform="rotate(40 990 312.5)"><use fill="#bb443b" stroke="#bb443b" stroke-width="0" filter="url(#wdu6gz)" mask="url(&quot;#wdu6gA&quot;)" xlink:href="#wdu6gy"/></g><g transform="rotate(40 728 464)"><use fill="#bb443b" stroke="#bb443b" stroke-width="0" filter="url(#wdu6gC)" mask="url(&quot;#wdu6gD&quot;)" xlink:href="#wdu6gB"/></g><g transform="rotate(40 679 495.5)"><use fill="#bb443b" stroke="#bb443b" stroke-width="0" filter="url(#wdu6gF)" mask="url(&quot;#wdu6gG&quot;)" xlink:href="#wdu6gE"/></g><g transform="rotate(40 797.5 420)"><use fill="#bb443b" stroke="#bb443b" stroke-width="0" filter="url(#wdu6gI)" mask="url(&quot;#wdu6gJ&quot;)" xlink:href="#wdu6gH"/></g></g><g clip-path="url(#wdu6bh)" transform="rotate(40 349 259)"><use fill="#bb443b" stroke="#bb443b" stroke-width="0" filter="url(#wdu6gL)" mask="url(&quot;#wdu6gM&quot;)" xlink:href="#wdu6gK"/></g><g clip-path="url(#wdu6bh)" transform="rotate(40 158.5 102)"><use fill="#bb443b" stroke="#bb443b" stroke-width="0" filter="url(#wdu6gO)" mask="url(&quot;#wdu6gP&quot;)" xlink:href="#wdu6gN"/></g><g clip-path="url(#wdu6bh)" transform="rotate(40 398.5 291)"><use fill="#bb443b" stroke="#bb443b" stroke-width="0" filter="url(#wdu6gR)" mask="url(&quot;#wdu6gS&quot;)" xlink:href="#wdu6gQ"/></g><g clip-path="url(#wdu6bh)" transform="rotate(40 293 214)"><use fill="#bb443b" stroke="#bb443b" stroke-width="0" filter="url(#wdu6gU)" mask="url(&quot;#wdu6gV&quot;)" xlink:href="#wdu6gT"/></g><g clip-path="url(#wdu6bh)" transform="rotate(40 450 341.5)"><use fill="#bb443b" stroke="#bb443b" stroke-width="0" filter="url(#wdu6gX)" mask="url(&quot;#wdu6gY&quot;)" xlink:href="#wdu6gW"/></g><g clip-path="url(#wdu6bh)" transform="rotate(40 216.5 150.5)"><use fill="#bb443b" stroke="#bb443b" stroke-width="0" filter="url(#wdu6ha)" mask="url(&quot;#wdu6hb&quot;)" xlink:href="#wdu6gZ"/></g><g clip-path="url(#wdu6bh)" transform="rotate(40 259 185)"><use fill="#bb443b" stroke="#bb443b" stroke-width="0" filter="url(#wdu6hd)" mask="url(&quot;#wdu6he&quot;)" xlink:href="#wdu6hc"/></g><g clip-path="url(#wdu6bh)" transform="rotate(40 124 71)"><g><use fill="#bb443b" stroke="#bb443b" stroke-width="0" filter="url(#wdu6hg)" mask="url(&quot;#wdu6hh&quot;)" xlink:href="#wdu6hf"/></g><g><use fill="#bb443b" stroke="#bb443b" stroke-width="0" filter="url(#wdu6hj)" mask="url(&quot;#wdu6hk&quot;)" xlink:href="#wdu6hi"/></g></g><g clip-path="url(#wdu6bh)" transform="rotate(110 1230.5 174.5)"><g transform="rotate(40 1162 212.5)"><use fill="#bb443b" stroke="#bb443b" stroke-width="0" filter="url(#wdu6hm)" mask="url(&quot;#wdu6hn&quot;)" xlink:href="#wdu6hl"/></g><g transform="rotate(40 1372.5 87.5)"><use fill="#bb443b" stroke="#bb443b" stroke-width="0" filter="url(#wdu6hp)" mask="url(&quot;#wdu6hq&quot;)" xlink:href="#wdu6ho"/></g><g transform="rotate(40 1113 242)"><use fill="#bb443b" stroke="#bb443b" stroke-width="0" filter="url(#wdu6hs)" mask="url(&quot;#wdu6ht&quot;)" xlink:href="#wdu6hr"/></g><g transform="rotate(40 1220 171.5)"><use fill="#bb443b" stroke="#bb443b" stroke-width="0" filter="url(#wdu6hv)" mask="url(&quot;#wdu6hw&quot;)" xlink:href="#wdu6hu"/></g><g transform="rotate(40 1051.5 280)"><use fill="#bb443b" stroke="#bb443b" stroke-width="0" filter="url(#wdu6hy)" mask="url(&quot;#wdu6hz&quot;)" xlink:href="#wdu6hx"/></g><g transform="rotate(40 1308.5 125.5)"><use fill="#bb443b" stroke="#bb443b" stroke-width="0" filter="url(#wdu6hB)" mask="url(&quot;#wdu6hC&quot;)" xlink:href="#wdu6hA"/></g><g transform="rotate(40 1262.5 154)"><use fill="#bb443b" stroke="#bb443b" stroke-width="0" filter="url(#wdu6hE)" mask="url(&quot;#wdu6hF&quot;)" xlink:href="#wdu6hD"/></g><g transform="rotate(40 1415 65.5)"><g><use fill="#bb443b" stroke="#bb443b" stroke-width="0" filter="url(#wdu6hH)" mask="url(&quot;#wdu6hI&quot;)" xlink:href="#wdu6hG"/></g><g><use fill="#bb443b" stroke="#bb443b" stroke-width="0" filter="url(#wdu6hK)" mask="url(&quot;#wdu6hL&quot;)" xlink:href="#wdu6hJ"/></g></g></g><g clip-path="url(#wdu6bh)" transform="rotate(150 845 266.5)"><use fill="#bb443b" stroke="#bb443b" stroke-width="0" filter="url(#wdu6hN)" mask="url(&quot;#wdu6hO&quot;)" xlink:href="#wdu6hM"/></g></g></g></svg>